<svg xmlns="http://www.w3.org/2000/svg" width="224" height="80"><g fill="#393939" fill-rule="evenodd"><path d="M0 57.674h11.73V58.7c.011 4.116.023 8.233.043 12.35 0 .363.036.728.1 1.083.548 3.081 3.428 4.539 6.168 3.131 1.06-.541 1.635-1.483 1.816-2.627.167-1.068.228-2.164.23-3.25.011-24.915.008-49.83.008-74.745v-1.223h11.852v.964l-.001 75.378c-.002 2.884-.189 5.75-1.182 8.486-1.49 4.092-4.399 6.562-8.445 7.575-4.49 1.125-8.996 1.14-13.44-.305-4.4-1.431-7.062-4.566-8.167-9.136C.394 75.07.232 73.72 0 72.388V57.674zm151.83 27.612V-6.589c.198-.021.367-.054.534-.052 6.097.003 12.195-.082 18.287.065 2.167.052 4.375.46 6.468 1.062 4.154 1.194 6.256 4.348 6.872 8.615.23 1.579.334 3.19.342 4.788.038 6.415.02 12.832.012 19.25-.002 2.248-.197 4.47-1.06 6.572a9.28 9.28 0 0 1-3.587 4.349c-.247.159-.497.316-.737.484-.043.03-.06.097-.11.186 2.364 1.17 4.248 2.908 5.03 5.516.546 1.823.904 3.778.932 5.68.1 6.988.108 13.982-.025 20.972a25.238 25.238 0 0 1-1.026 6.585c-1.241 4.2-4.336 6.404-8.372 7.218-1.77.357-3.6.537-5.405.557-5.831.07-11.665.028-17.497.028h-.658zm11.82-11.657c2.206 0 4.373.115 6.52-.038 1.657-.116 2.579-1.283 2.754-3.012a17.33 17.33 0 0 0 .083-1.809c.007-6.294.007-12.585 0-18.879a17.2 17.2 0 0 0-.086-1.9c-.197-1.842-1.122-3.192-2.706-3.33-2.164-.191-4.359-.05-6.565-.05V73.63zm-.008-40.61c2.077 0 4.066.08 6.045-.026 1.268-.07 2.208-.87 2.539-2.16.275-1.069.49-2.19.498-3.29.05-5.837.04-11.672.012-17.51-.005-.866-.15-1.744-.33-2.596-.263-1.24-1.065-2.132-2.267-2.207-2.146-.131-4.302-.034-6.497-.034v27.823zM46.148-6.608h15.02l11.057 91.85H60.271l-1.645-18.804h-9.93l-1.653 18.8H35.092L46.148-6.608zM57.36 55.043L53.653 9.74l-.103-.004-3.773 45.307h7.583zm166.369-35.481h-11.723v-1c-.008-3.633.033-7.266-.037-10.898-.07-3.82-3.596-5.872-6.899-4.083-1.25.676-1.982 1.805-2.03 3.188-.123 3.383-.116 6.77-.111 10.156a20.502 20.502 0 0 0 1.04 6.499c1.078 3.225 3.14 5.698 5.664 7.801 1.732 1.444 3.508 2.832 5.237 4.28 4.862 4.074 7.45 9.467 8.341 15.763.343 2.418.528 4.872.576 7.317.083 4.417.046 8.838-.008 13.256-.037 2.752-.6 5.404-1.887 7.842-1.82 3.445-4.756 5.363-8.357 6.209-4.44 1.047-8.9 1.037-13.284-.329-5.165-1.605-7.971-5.38-8.827-10.758-.273-1.723-.34-3.488-.367-5.239-.055-3.6-.017-7.202-.017-10.806v-1.022h11.766c.015.312.042.632.042.949.001 3.692-.035 7.386.023 11.079.018 1.1.16 2.246.49 3.289.599 1.876 2.128 2.695 4.432 2.607 2.057-.08 3.359-1.005 3.862-2.909.225-.904.338-1.835.334-2.77.03-3.782.012-7.566-.008-11.35-.041-7.497-2.792-13.582-8.671-18.143-2.31-1.793-4.556-3.73-6.58-5.853-3.239-3.398-4.778-7.705-5.31-12.375a83.478 83.478 0 0 1-.141-17.215c.724-7.684 5.113-11.771 12.378-12.75 3.062-.415 6.133-.38 9.176.29 6.34 1.397 10.17 5.485 10.707 12.15.39 4.842.207 9.732.277 14.603 0 .054-.043.11-.088.222zm-116.419.008H95.806v-1.115c-.025-3.633.005-7.266-.091-10.896-.062-2.301-1.15-3.85-3.009-4.276-3.091-.712-5.866.403-6.15 4.528-.033.481-.026.97-.026 1.453 0 20.01-.008 40.025.017 60.038 0 1.194.096 2.437.425 3.57.596 2.05 2.226 2.914 4.766 2.783 1.97-.1 3.326-1.181 3.761-3.173.222-1.022.282-2.098.293-3.15.033-3.513.014-7.026.014-10.538V57.75H107.3c.022.242.055.446.055.65-.01 4.482.005 8.962-.05 13.444a18.339 18.339 0 0 1-1.295 6.63c-1.45 3.609-4.032 5.986-7.64 7.068-5.232 1.568-10.475 1.53-15.615-.42-4.47-1.692-6.806-5.265-7.612-9.951-.323-1.866-.43-3.791-.434-5.688-.03-20.105-.041-40.21.012-60.312.006-2.31.21-4.675.715-6.92 1.17-5.18 4.508-8.289 9.467-9.476 4.372-1.048 8.77-1.079 13.12.197 4.791 1.404 7.666 4.73 8.711 9.685.403 1.904.543 3.893.596 5.848.091 3.45.027 6.903.025 10.355 0 .208-.025.415-.045.711zm25.828 48.209v.976l-2.525 1.295 2.525.166v1.304l-5.232-.277v-1.2l3.541-1.781-3.541-1.773v-1.192l5.232-.284v1.303l-2.525.166 2.525 1.295v.002zm-3.17-8.318h1.108v2.393h.932v-2.751h1.13v4.085h-5.232v-4.085h1.13v2.75h.932v-2.392zm.54-7.092c1.654 0 2.693 1.184 2.693 2.804 0 .804-.031 1.558-.063 2.147h-5.232a35.333 35.333 0 0 1-.063-2.008c0-1.759 1.032-2.943 2.664-2.943zm0 1.383c-.918 0-1.502.62-1.502 1.503 0 .228 0 .483.017.73h3c.017-.277.017-.57.017-.843 0-.77-.601-1.39-1.533-1.39zm-2.602-3.046V49.36h5.232v1.345h-5.232zm5.232-4.03v1.462l-5.264-2.407v-1.247l5.264-2.402v1.454l-.86.375v2.401l.86.364zm-1.96-.826v-1.485l-1.748.744 1.747.741zm1.515-13.05c.37.986.561 1.79.561 2.498 0 1.764-1.1 2.939-2.747 2.939-1.632 0-2.717-1.191-2.717-2.99 0-.666.083-1.35.246-2.016l1.154.23c-.13.803-.184 1.286-.184 1.66 0 1.018.6 1.702 1.501 1.702.915 0 1.53-.62 1.53-1.541 0-.431-.084-.938-.176-1.338h-.755v1.719h-1.062V32.8h2.649zm-1.056-3.736v.564h1.501v1.337h-5.232a57.565 57.565 0 0 1-.047-2.171c0-1.399.646-2.271 1.862-2.271.7 0 1.263.346 1.585.936l1.832-1.296v1.59l-1.5.994v.317zm-1.092-.293c0-.548-.33-.913-.807-.913-.525 0-.762.365-.762.969 0 .246.007.531.007.801h1.562v-.857zm-.023-9.503c1.638 0 2.73 1.191 2.73 2.901 0 1.709-1.092 2.9-2.73 2.9s-2.732-1.191-2.732-2.9c0-1.71 1.092-2.901 2.73-2.901h.002zm0 1.383c-.923 0-1.532.635-1.532 1.518s.609 1.517 1.532 1.517 1.539-.636 1.539-1.517c0-.883-.616-1.518-1.539-1.518zm.255-7.916c1.552 0 2.477.978 2.477 2.536 0 1.55-.925 2.519-2.477 2.519h-2.871v-1.35h2.87c.8 0 1.262-.454 1.262-1.169 0-.717-.462-1.184-1.261-1.184h-2.871v-1.352h2.87zm-1.001-6.278c1.191 0 1.946.92 1.946 2.35v.748h1.416v1.335h-5.232a42.225 42.225 0 0 1-.063-2.083c0-1.43.708-2.35 1.933-2.35zm.815 2.272c0-.548-.299-.938-.809-.938-.523 0-.806.39-.806.938 0 .277.007.556.014.826h1.601V8.73z"/><path d="M135.857 39.328v.047c0 10.06.002 20.12-.003 30.18 0 .737-.028 1.476-.087 2.21-.003.028-.01.049-.011.077-.034.406-.093.81-.178 1.207-.328 1.496-1.236 2.498-2.678 2.95-1.424.447-2.874.44-4.313.115-1.11-.25-2.038-.82-2.632-1.859-.483-.845-.68-1.772-.685-2.733v-.12a15.679 15.679 0 0 1-.054-1.376c-.007-10.233-.004-20.465-.005-30.698 0-10.233 0-20.465.005-30.698 0-.456.015-.916.054-1.374v-.08c.005-.96.2-1.887.683-2.73.596-1.04 1.524-1.61 2.634-1.86 1.44-.326 2.89-.333 4.313.115 1.442.452 2.348 1.453 2.678 2.949.083.373.138.756.174 1.142.002.034.012.064.015.098a28.8 28.8 0 0 1 .087 2.211c.005 10.06.003 20.12.003 30.18v.047zm11.257-1.72h-.005c-.002-9.57-.007-19.141-.032-28.712a30.998 30.998 0 0 0-.704-6.546c-1.033-4.696-3.88-7.837-8.406-9.257-4.472-1.4-9.022-1.382-13.544-.36-3.48.785-6.397 2.573-8.262 5.837-1.519 2.648-2.135 5.56-2.148 8.58-.039 10.152-.019 20.306-.017 30.459h-.043v3.438h.043c-.002 10.153-.022 20.306.017 30.461.013 3.018.629 5.931 2.148 8.58 1.865 3.26 4.782 5.05 8.262 5.835 4.522 1.022 9.072 1.04 13.544-.36 4.526-1.42 7.373-4.561 8.406-9.259.47-2.128.699-4.357.704-6.542.025-9.571.03-19.142.032-28.713h.003v-3.441h.002z"/></g></svg>