<?xml version="1.0" encoding="utf-8"?>
<!-- Generator: Adobe Illustrator 24.2.0, SVG Export Plug-In . SVG Version: 6.00 Build 0)  -->
<svg version="1.1" id="Capa_1" xmlns="http://www.w3.org/2000/svg" xmlns:xlink="http://www.w3.org/1999/xlink" x="0px" y="0px"
	 viewBox="0 0 46.5 46.5" style="enable-background:new 0 0 46.5 46.5;" xml:space="preserve">
<style type="text/css">
	.st0{fill:#FFFFFF;}
</style>
<g>
	<path class="st0" d="M46.2,41.9c0.7,1.5,0,3.3-1.6,3.9c-1.5,0.7-3.3,0-3.9-1.6c-2.9-6.7-9.7-11-17.4-11c-7.9,0-14.7,4.3-17.5,11
		c-0.5,1.2-1.6,1.8-2.8,1.8c-0.4,0-0.8-0.1-1.1-0.2c-1.5-0.6-2.3-2.4-1.6-3.9C3.9,33,13,27.3,23.3,27.3C33.4,27.3,42.4,33,46.2,41.9
		z M2.4,6.6c0-3.4,2.8-6.2,6.2-6.2c3.4,0,6.2,2.8,6.2,6.2c0,3.4-2.8,6.2-6.2,6.2C5.2,12.8,2.4,10,2.4,6.6z M30.6,6.6
		c0-3.4,2.8-6.2,6.2-6.2c3.4,0,6.2,2.8,6.2,6.2c0,3.4-2.8,6.2-6.2,6.2S30.6,10,30.6,6.6z"/>
</g>
</svg>
