<?xml version="1.0" encoding="UTF-8"?>
<svg width="25px" height="25px" viewBox="0 0 25 25" version="1.1" xmlns="http://www.w3.org/2000/svg" xmlns:xlink="http://www.w3.org/1999/xlink">
    <title>Fill 1</title>
    <g id="All-pages---Mobile" stroke="none" stroke-width="1" fill="none" fill-rule="evenodd">
        <g id="Mobile:-menu-open" transform="translate(-265.000000, -28.000000)" fill="#000000">
            <path d="M265.653954,49.9981813 C264.800181,50.7808068 264.782394,51.581207 265.600593,52.3994067 C266.418793,53.2176063 267.219193,53.1998192 268.001819,52.3460461 L277.5,42.9545869 L286.998179,52.3460461 C287.780805,53.1998192 288.581204,53.2176063 289.399408,52.3994067 C290.217606,51.581207 290.19982,50.7808068 289.346044,49.9981813 L279.954585,40.5 L289.346044,31.0018207 C290.19982,30.2191945 290.217606,29.4187963 289.399408,28.6005919 C288.581204,27.7823943 287.780805,27.80018 286.998179,28.6539559 L277.5,38.0454151 L268.001819,28.6539559 C267.219193,27.80018 266.418793,27.7823943 265.600593,28.6005919 C264.782394,29.4187963 264.800181,30.2191945 265.653954,31.0018207 L275.045413,40.5 L265.653954,49.9981813 Z" id="Fill-1"></path>
        </g>
    </g>
</svg>