<?xml version="1.0" encoding="utf-8"?>
<!-- Generator: Adobe Illustrator 24.2.1, SVG Export Plug-In . SVG Version: 6.00 Build 0)  -->
<svg version="1.1" id="Layer_1" xmlns="http://www.w3.org/2000/svg" xmlns:xlink="http://www.w3.org/1999/xlink" x="0px" y="0px"
	 viewBox="0 0 22 15.1" style="enable-background:new 0 0 22 15.1;" xml:space="preserve">
<style type="text/css">
	.st0{fill:#484848;}
</style>
<g id="email_2_" transform="translate(577 846)">
	<g id="Group_164" transform="translate(14.6 82.792)">
		<g id="Group_163">
			<path id="Path_153" class="st0" d="M-577-921.1l7.4,4.7v-9.6L-577-921.1z"/>
		</g>
	</g>
	<g id="Group_166" transform="translate(0 82.792)">
		<g id="Group_165">
			<path id="Path_154" class="st0" d="M-577-926v9.6l7.4-4.7L-577-926z"/>
		</g>
	</g>
	<g id="Group_168" transform="translate(0.041 80)">
		<g id="Group_167">
			<path id="Path_155" class="st0" d="M-556.4-926h-19.3c-0.7,0-1.2,0.5-1.3,1.2l11,7.2l11-7.2C-555.2-925.5-555.7-926-556.4-926z"
				/>
		</g>
	</g>
	<g id="Group_170" transform="translate(0.044 88.514)">
		<g id="Group_169">
			<path id="Path_156" class="st0" d="M-563.7-926l-1.9,1.3c-0.2,0.2-0.5,0.2-0.8,0l-1.9-1.3l-8.6,5.5c0.1,0.7,0.7,1.2,1.3,1.2h19.3
				c0.7,0,1.2-0.5,1.3-1.2L-563.7-926z"/>
		</g>
	</g>
</g>
</svg>
