<?xml version="1.0" encoding="utf-8"?>
<!-- Generator: Adobe Illustrator 24.2.1, SVG Export Plug-In . SVG Version: 6.00 Build 0)  -->
<svg version="1.1" id="Layer_1" xmlns="http://www.w3.org/2000/svg" xmlns:xlink="http://www.w3.org/1999/xlink" x="0px" y="0px"
	 viewBox="0 0 18.9 13" style="enable-background:new 0 0 18.9 13;" xml:space="preserve">
<style type="text/css">
	.st0{fill:#FFFFFF;}
</style>
<g id="email_2_" transform="translate(320.701 6345.857)">
	<g id="Group_164" transform="translate(12.508 82.392)">
		<g id="Group_163">
			<path id="Path_153" class="st0" d="M-320.7-6421.7l6.4,4v-8.2L-320.7-6421.7z"/>
		</g>
	</g>
	<g id="Group_166" transform="translate(0 82.392)">
		<g id="Group_165">
			<path id="Path_154" class="st0" d="M-320.7-6425.9v8.2l6.4-4L-320.7-6425.9z"/>
		</g>
	</g>
	<g id="Group_168" transform="translate(0.035 80)">
		<g id="Group_167">
			<path id="Path_155" class="st0" d="M-303-6425.9h-16.5c-0.6,0-1.1,0.4-1.1,1l9.4,6.2l9.4-6.2
				C-302-6425.4-302.5-6425.9-303-6425.9z"/>
		</g>
	</g>
	<g id="Group_170" transform="translate(0.038 87.294)">
		<g id="Group_169">
			<path id="Path_156" class="st0" d="M-309.3-6425.9l-1.7,1.1c-0.2,0.1-0.5,0.1-0.6,0l-1.7-1.1l-7.4,4.7c0.1,0.6,0.6,1,1.1,1h16.5
				c0.6,0,1.1-0.4,1.1-1L-309.3-6425.9z"/>
		</g>
	</g>
</g>
</svg>
