<svg width="20" height="20" viewBox="0 0 20 20" fill="none" xmlns="http://www.w3.org/2000/svg">
    <path d="M2 8V18H14V8H2ZM4 6V2C4 1.46957 4.21071 0.960859 4.58579 0.585786C4.96086 0.210714 5.46957 0 6 0H18C18.5304 0 19.0391 0.210714 19.4142 0.585786C19.7893 0.960859 20 1.46957 20 2V12C20 12.5304 19.7893 13.0391 19.4142 13.4142C19.0391 13.7893 18.5304 14 18 14H16V18C16 18.5304 15.7893 19.0391 15.4142 19.4142C15.0391 19.7893 14.5304 20 14 20H2C1.46957 20 0.960859 19.7893 0.585786 19.4142C0.210714 19.0391 0 18.5304 0 18V8C0 7.46957 0.210714 6.96086 0.585786 6.58579C0.960859 6.21071 1.46957 6 2 6H4ZM6 6H14C14.5304 6 15.0391 6.21071 15.4142 6.58579C15.7893 6.96086 16 7.46957 16 8V12H18V2H6V6ZM6 15C5.60603 15 5.21593 14.9224 4.85195 14.7716C4.48797 14.6209 4.15726 14.3999 3.87868 14.1213C3.6001 13.8427 3.37913 13.512 3.22836 13.1481C3.0776 12.7841 3 12.394 3 12C3 11.606 3.0776 11.2159 3.22836 10.8519C3.37913 10.488 3.6001 10.1573 3.87868 9.87868C4.15726 9.6001 4.48797 9.37913 4.85195 9.22836C5.21593 9.0776 5.60603 9 6 9C6.79565 9 7.55871 9.31607 8.12132 9.87868C8.68393 10.4413 9 11.2044 9 12C9 12.7956 8.68393 13.5587 8.12132 14.1213C7.55871 14.6839 6.79565 15 6 15V15ZM6 13C6.26522 13 6.51957 12.8946 6.70711 12.7071C6.89464 12.5196 7 12.2652 7 12C7 11.7348 6.89464 11.4804 6.70711 11.2929C6.51957 11.1054 6.26522 11 6 11C5.73478 11 5.48043 11.1054 5.29289 11.2929C5.10536 11.4804 5 11.7348 5 12C5 12.2652 5.10536 12.5196 5.29289 12.7071C5.48043 12.8946 5.73478 13 6 13ZM7 6C7 5.20435 7.31607 4.44129 7.87868 3.87868C8.44129 3.31607 9.20435 3 10 3C10.7956 3 11.5587 3.31607 12.1213 3.87868C12.6839 4.44129 13 5.20435 13 6H11C11 5.73478 10.8946 5.48043 10.7071 5.29289C10.5196 5.10536 10.2652 5 10 5C9.73478 5 9.48043 5.10536 9.29289 5.29289C9.10536 5.48043 9 5.73478 9 6H7ZM8.864 19.518L7.136 18.511L9.861 13.838C10.0975 13.4322 10.4261 13.0876 10.8201 12.832C11.2142 12.5763 11.6627 12.4168 12.1297 12.3662C12.5967 12.3156 13.069 12.3754 13.5087 12.5407C13.9483 12.706 14.343 12.9723 14.661 13.318L15.749 14.502L14.276 15.856L13.189 14.672C13.083 14.5568 12.9514 14.4681 12.8048 14.413C12.6582 14.358 12.5007 14.3381 12.3451 14.355C12.1894 14.372 12.0399 14.4252 11.9086 14.5105C11.7772 14.5958 11.6678 14.7107 11.589 14.846L8.864 19.518V19.518ZM15.376 6.548C15.9375 6.33129 16.5513 6.28884 17.1373 6.4262C17.7233 6.56355 18.2543 6.87434 18.661 7.318L19.749 8.502L18.276 9.856L17.189 8.672C17.0414 8.51138 16.8453 8.40344 16.6306 8.36462C16.416 8.3258 16.1945 8.35824 16 8.457V8C16 7.429 15.76 6.913 15.376 6.549V6.548Z" fill="#E21235" />
</svg>
