<?xml version="1.0" encoding="utf-8"?>
<!-- Generator: Adobe Illustrator 24.2.1, SVG Export Plug-In . SVG Version: 6.00 Build 0)  -->
<svg version="1.1" id="Layer_1" xmlns="http://www.w3.org/2000/svg" xmlns:xlink="http://www.w3.org/1999/xlink" x="0px" y="0px"
	 viewBox="0 0 19.3 19.3" style="enable-background:new 0 0 19.3 19.3;" xml:space="preserve">
<style type="text/css">
	.st0{fill:#FFFFFF;}
</style>
<g id="instagram" transform="translate(325.551 6393.001)">
	<path id="Path_190" class="st0" d="M-306.3-6387.3c0-0.8-0.2-1.6-0.4-2.3c-0.5-1.3-1.5-2.3-2.8-2.8c-0.7-0.3-1.5-0.4-2.3-0.4
		c-1,0-1.4-0.1-4-0.1c-2.6,0-2.9,0-4,0.1c-0.8,0-1.6,0.2-2.3,0.4c-0.6,0.2-1.2,0.6-1.7,1.1c-0.5,0.5-0.9,1.1-1.1,1.7
		c-0.3,0.7-0.4,1.5-0.4,2.3c0,1-0.1,1.4-0.1,4c0,2.6,0,2.9,0.1,4c0,0.8,0.2,1.6,0.4,2.3c0.5,1.3,1.5,2.3,2.8,2.8
		c0.7,0.3,1.5,0.4,2.3,0.4c1,0,1.4,0.1,4,0.1s2.9,0,4-0.1c0.8,0,1.6-0.2,2.3-0.4c1.3-0.5,2.3-1.5,2.8-2.8c0.3-0.7,0.4-1.5,0.4-2.3
		c0-1,0.1-1.4,0.1-4C-306.3-6386-306.3-6386.3-306.3-6387.3L-306.3-6387.3z M-308.1-6379.5c0,0.6-0.1,1.2-0.3,1.8
		c-0.3,0.8-1,1.5-1.8,1.8c-0.6,0.2-1.2,0.3-1.8,0.3c-1,0-1.3,0.1-3.9,0.1s-2.9,0-3.9-0.1c-0.6,0-1.2-0.1-1.8-0.3
		c-0.4-0.2-0.8-0.4-1.1-0.7c-0.3-0.3-0.6-0.7-0.7-1.1c-0.2-0.6-0.3-1.2-0.3-1.8c0-1-0.1-1.3-0.1-3.9c0-2.6,0-2.9,0.1-3.9
		c0-0.6,0.1-1.2,0.3-1.8c0.2-0.4,0.4-0.8,0.7-1.1c0.3-0.3,0.7-0.6,1.1-0.7c0.6-0.2,1.2-0.3,1.8-0.3c1,0,1.3-0.1,3.9-0.1
		c2.6,0,2.9,0,3.9,0.1c0.6,0,1.2,0.1,1.8,0.3c0.4,0.2,0.8,0.4,1.1,0.7c0.3,0.3,0.6,0.7,0.7,1.1c0.2,0.6,0.3,1.2,0.3,1.8
		c0,1,0.1,1.3,0.1,3.9C-308-6380.8-308-6380.5-308.1-6379.5L-308.1-6379.5z"/>
	<path id="Path_191" class="st0" d="M-315.9-6388.3c-2.7,0-4.9,2.2-4.9,4.9c0,2.7,2.2,4.9,4.9,4.9c2.7,0,4.9-2.2,4.9-4.9
		C-311-6386.1-313.2-6388.3-315.9-6388.3z M-315.9-6380.2c-1.8,0-3.2-1.4-3.2-3.2c0-1.8,1.4-3.2,3.2-3.2c1.8,0,3.2,1.4,3.2,3.2
		C-312.7-6381.6-314.1-6380.2-315.9-6380.2z"/>
	<path id="Path_192" class="st0" d="M-309.6-6388.5c0,0.6-0.5,1.2-1.2,1.2s-1.2-0.5-1.2-1.2c0-0.6,0.5-1.2,1.2-1.2l0,0
		C-310.1-6389.7-309.6-6389.1-309.6-6388.5z"/>
</g>
</svg>
