<?xml version="1.0" encoding="utf-8"?>
<!-- Generator: Adobe Illustrator 24.2.1, SVG Export Plug-In . SVG Version: 6.00 Build 0)  -->
<svg version="1.1" id="Layer_1" xmlns="http://www.w3.org/2000/svg" xmlns:xlink="http://www.w3.org/1999/xlink" x="0px" y="0px"
	 viewBox="0 0 17 17" style="enable-background:new 0 0 17 17;" xml:space="preserve">
<style type="text/css">
	.st0{fill:#484848;}
</style>
<g id="Group_276" transform="translate(-11 -1426)">
	<path id="Path_5" class="st0" d="M28,1443L28,1443v-6.7c0-3.3-0.7-5.8-4.5-5.8c-1.5-0.1-2.8,0.7-3.6,2h-0.1v-1.7h-3.6v12.2H20v-6
		c0-1.6,0.3-3.1,2.3-3.1c1.9,0,2,1.8,2,3.2v5.9H28z"/>
	<path id="Path_6" class="st0" d="M11.3,1430.8h3.8v12.2h-3.8V1430.8z"/>
	<path id="Path_7" class="st0" d="M13.2,1426c-1.2,0-2.2,1-2.2,2.2c0,1.2,1,2.2,2.2,2.2s2.2-1,2.2-2.2c0,0,0,0,0,0
		C15.4,1427,14.4,1426,13.2,1426z"/>
</g>
</svg>
