<?xml version="1.0" encoding="utf-8"?>
<!-- Generator: Adobe Illustrator 24.2.1, SVG Export Plug-In . SVG Version: 6.00 Build 0)  -->
<svg version="1.1" id="Layer_1" xmlns="http://www.w3.org/2000/svg" xmlns:xlink="http://www.w3.org/1999/xlink" x="0px" y="0px"
	 viewBox="0 0 15.4 15.3" style="enable-background:new 0 0 15.4 15.3;" xml:space="preserve">
<style type="text/css">
	.st0{fill:#FFFFFF;}
</style>
<g id="linkedin" transform="translate(157 6423.652)">
	<path id="Path_150" class="st0" d="M-141.6-6408.3L-141.6-6408.3v-5.6c0-2.8-0.6-4.9-3.8-4.9c-1.2,0-2.4,0.6-3,1.7h0v-1.4h-3v10.2
		h3.2v-5.1c0-1.3,0.3-2.6,1.9-2.6c1.6,0,1.7,1.5,1.7,2.7v5L-141.6-6408.3z"/>
	<path id="Path_151" class="st0" d="M-156.7-6418.6h3.2v10.2h-3.2V-6418.6z"/>
	<path id="Path_152" class="st0" d="M-155.1-6423.7c-1,0-1.9,0.8-1.9,1.8c0,1,0.8,1.9,1.8,1.9c1,0,1.9-0.8,1.9-1.8c0,0,0,0,0,0
		C-153.3-6422.8-154.1-6423.7-155.1-6423.7C-155.1-6423.7-155.1-6423.7-155.1-6423.7z"/>
</g>
</svg>
