<?xml version="1.0" encoding="UTF-8"?>
<svg width="18px" height="18px" viewBox="0 0 18 18" version="1.1" xmlns="http://www.w3.org/2000/svg" xmlns:xlink="http://www.w3.org/1999/xlink">
    <title>search_grey</title>
    <g id="Symbols" stroke="none" stroke-width="1" fill="none" fill-rule="evenodd">
        <g id="header-v4" transform="translate(-20.000000, -50.000000)" fill="#9D9D9D">
            <g id="search_grey">
                <g transform="translate(20.000000, 50.000000)">
                    <g id="search">
                        <path d="M11.0336534,11.0444701 C11.9855835,10.0925424 12.4615388,8.94952609 12.4615388,7.61538471 C12.4615388,6.28124332 11.9873863,5.14002734 11.0390642,4.19170524 C10.0907421,3.24338315 8.94952609,2.76923058 7.61538471,2.76923058 C6.28124332,2.76923058 5.14002976,3.24338315 4.19170766,4.19170524 C3.24338557,5.14002734 2.76923058,6.28124332 2.76923058,7.61538471 C2.76923058,8.94952609 3.24338557,10.0907397 4.19170766,11.0390618 C5.14002976,11.9873838 6.28124332,12.4615388 7.61538471,12.4615388 C8.94952609,12.4615388 10.0889393,11.9891866 11.0336534,11.0444701 Z M18,16.6153845 C18,16.9903864 17.8629823,17.3149023 17.5889444,17.5889422 C17.314904,17.8629821 16.9903886,18 16.6153859,18 C16.2259611,18 15.9014456,17.8629821 15.6418275,17.5889422 L11.9314907,13.8894218 C10.6406182,14.7836584 9.20193076,15.2307694 7.61538471,15.2307694 C6.58413038,15.2307694 5.59796225,15.0306499 4.65685123,14.6304085 C3.71574021,14.230167 2.9044504,13.6893071 2.22295682,13.0078119 C1.54146301,12.326319 1.00060313,11.5150292 0.600360715,10.5739182 C0.200118203,9.63280717 0,8.64663904 0,7.61538471 C0,6.58412796 0.200118203,5.59795982 0.600360715,4.65685123 C1.00060313,3.71574021 1.54146301,2.9044504 2.22295682,2.22295513 C2.9044504,1.54146228 3.71574021,1.0006024 4.65685123,0.600358535 C5.59796225,0.200117088 6.58413038,0 7.61538471,0 C8.64664146,0 9.63280717,0.200117088 10.5739182,0.600358535 C11.5150292,1.0006024 12.326319,1.54146228 13.0078143,2.22295513 C13.6893071,2.9044504 14.230167,3.71574021 14.6304085,4.65685123 C15.0306523,5.59795982 15.2307694,6.58412796 15.2307694,7.61538471 C15.2307694,9.20193076 14.7836584,10.6406182 13.8894242,11.9314907 L17.599761,15.6418268 C17.8665878,15.908655 18,16.233171 18,16.6153845 Z"></path>
                    </g>
                </g>
            </g>
        </g>
    </g>
</svg>