<svg xmlns="http://www.w3.org/2000/svg" width="46" height="46" viewBox="0 0 46 46">
  <g id="icon_widget_newsletter" transform="translate(-715 -5124)">
    <g id="icon_widget_newsletter-2" data-name="icon_widget_newsletter" transform="translate(3 17)">
      <path id="Path_233" data-name="Path 233" d="M-7128.2,17543.4h27.2v13.6l-14,9.8-13.2-10.6Z" transform="translate(7850 -12428)" fill="rgba(226,18,53,0.16)"/>
      <g id="Group_267" data-name="Group 267" transform="translate(0 1)">
        <text id="_" data-name="@" transform="translate(728 5128)" fill="#e21235" font-size="14" font-family="FiraSans-Medium, Fira Sans" font-weight="500"><tspan x="0" y="0">@</tspan></text>
        <g id="Group_266" data-name="Group 266" transform="translate(188.307 4940.529)">
          <path id="Path_229" data-name="Path 229" d="M551.3,173.578l-4.606-3.107-4.606,3.107" fill="none" stroke="#e21235" stroke-width="2"/>
          <path id="Path_230" data-name="Path 230" d="M533.1,179.64l-4.41,2.975v24.217h36V182.614l-4.726-3.188" fill="none" stroke="#e21235" stroke-width="2"/>
          <path id="Path_231" data-name="Path 231" d="M528.982,183.843,546.4,196.855l18-13.012" fill="none" stroke="#e21235" stroke-width="2"/>
          <g id="Group_265" data-name="Group 265">
            <line id="Line_33" data-name="Line 33" y1="11.948" x2="15.36" transform="translate(528.693 194.883)" fill="none" stroke="#e21235" stroke-width="2"/>
            <line id="Line_34" data-name="Line 34" x1="15.36" y1="11.948" transform="translate(549.333 194.883)" fill="none" stroke="#e21235" stroke-width="2"/>
          </g>
          <path id="Path_232" data-name="Path 232" d="M533.1,186.6V173.578h27.181v13.169" fill="none" stroke="#e21235" stroke-width="2"/>
        </g>
      </g>
    </g>
    <rect id="Rectangle_93" data-name="Rectangle 93" width="46" height="46" transform="translate(715 5124)" fill="none"/>
  </g>
</svg>
