<svg xmlns="http://www.w3.org/2000/svg" width="16.554" height="16.554" viewBox="0 0 16.554 16.554">
  <g id="Group_344" data-name="Group 344" transform="translate(0)">
    <path id="Path_1008" data-name="Path 1008" d="M10.621,17.243A6.621,6.621,0,1,0,4,10.621,6.63,6.63,0,0,0,10.621,17.243ZM8.966,6.9l4.966,3.725L8.966,14.346Z" transform="translate(-2.345 -2.345)" fill="#e21235" opacity="0.3"/>
    <path id="Path_1009" data-name="Path 1009" d="M10.277,18.554A8.277,8.277,0,1,0,2,10.277,8.28,8.28,0,0,0,10.277,18.554Zm0-14.9a6.621,6.621,0,1,1-6.621,6.621A6.63,6.63,0,0,1,10.277,3.655Zm-1.655,2.9V14l4.966-3.725Z" transform="translate(-2 -2)" fill="#e21235"/>
  </g>
</svg>
