<?xml version="1.0" encoding="UTF-8"?>
<svg width="14px" height="12px" viewBox="0 0 14 12" version="1.1" xmlns="http://www.w3.org/2000/svg" xmlns:xlink="http://www.w3.org/1999/xlink">
    <title>Path</title>
    <g id="Synk" stroke="none" stroke-width="1" fill="none" fill-rule="evenodd">
        <g id="Artboard" transform="translate(-174.000000, -17.000000)" fill="#DA0912" fill-rule="nonzero">
            <g id="i-tt" transform="translate(174.000000, 17.000000)">
                <path d="M13.657847,1.3141884 C13.1551624,1.5368872 12.6149186,1.6875029 12.0484974,1.7550333 C12.6278177,1.4082758 13.0720771,0.8596856 13.2803593,0.2056265 C12.738598,0.5265859 12.1399291,0.759528 11.5002866,0.8843456 C10.990773,0.3399286 10.2615957,1.42108547e-14 9.4554034,1.42108547e-14 C7.9086522,1.42108547e-14 6.6540272,1.254625 6.6540272,2.8017556 C6.6540272,3.0217987 6.6779284,3.2350128 6.7264897,3.4398805 C4.3982061,3.3226507 2.3335949,2.208398 0.9503585,0.5121693 C0.7090699,0.9272161 0.5717327,1.4082758 0.5717327,1.9219626 C0.5717327,2.8931873 1.0664502,3.7509759 1.8176318,4.25404 C1.3593352,4.2400027 0.9264573,4.1129089 0.5478314,3.9042473 L0.5478314,3.9383919 C0.5478314,5.2969683 1.5141241,6.4294315 2.7964442,6.6858955 C2.5616051,6.751529 2.3146257,6.7845355 2.0581617,6.7845355 C1.8775746,6.7845355 1.7019195,6.7678426 1.5311964,6.7348361 C1.887818,7.8479506 2.9216411,8.6583162 4.148571,8.6799412 C3.1891073,9.4318815 1.9803878,9.8795554 0.6684757,9.8795554 C0.4423625,9.8795554 0.2189049,9.8670357 -2.57571742e-14,9.8408582 C1.2402084,10.6352896 2.7129796,11.099277 4.2946341,11.099277 C9.450092,11.099277 12.2674023,6.830441 12.2674023,3.1272676 C12.2674023,3.0054851 12.265126,2.884082 12.2598146,2.7645759 C12.807646,2.3692571 13.2837738,1.8756777 13.657847,1.3141884" id="Path"></path>
            </g>
        </g>
    </g>
</svg>