<?xml version="1.0" encoding="utf-8"?>
<!-- Generator: Adobe Illustrator 24.2.1, SVG Export Plug-In . SVG Version: 6.00 Build 0)  -->
<svg version="1.1" id="Layer_1" xmlns="http://www.w3.org/2000/svg" xmlns:xlink="http://www.w3.org/1999/xlink" x="0px" y="0px"
	 viewBox="0 0 19.5 15.8" style="enable-background:new 0 0 19.5 15.8;" xml:space="preserve">
<style type="text/css">
	.st0{fill:#FFFFFF;}
</style>
<path id="Path_8" class="st0" d="M19.5,1.9c-0.7,0.3-1.5,0.5-2.3,0.6C18,2,18.7,1.2,19,0.3c-0.8,0.5-1.6,0.8-2.5,1
	c-1.5-1.6-4-1.7-5.7-0.2C10,1.8,9.5,2.9,9.5,4c0,0.3,0,0.6,0.1,0.9C6.4,4.7,3.4,3.2,1.4,0.7C0.3,2.6,0.8,4.9,2.6,6.1
	C2,6,1.3,5.9,0.8,5.6v0c0,1.9,1.3,3.5,3.2,3.9c-0.3,0.1-0.7,0.1-1,0.1c-0.3,0-0.5,0-0.8-0.1c0.5,1.6,2,2.7,3.7,2.8
	c-1.4,1.1-3.2,1.7-5,1.7c-0.3,0-0.6,0-1-0.1c1.8,1.2,4,1.8,6.1,1.8c6.2,0,11.3-5,11.4-11.2c0-0.1,0-0.1,0-0.2c0-0.2,0-0.3,0-0.5
	C18.3,3.4,19,2.7,19.5,1.9z"/>
</svg>
