<?xml version="1.0" encoding="utf-8"?>
<!-- Generator: Adobe Illustrator 24.2.1, SVG Export Plug-In . SVG Version: 6.00 Build 0)  -->
<svg version="1.1" id="Layer_1" xmlns="http://www.w3.org/2000/svg" xmlns:xlink="http://www.w3.org/1999/xlink" x="0px" y="0px"
	 viewBox="0 0 22.2 18" style="enable-background:new 0 0 22.2 18;" xml:space="preserve">
<style type="text/css">
	.st0{fill:#484848;}
</style>
<g id="Group_277" transform="translate(521 925)">
	<path id="Path_8" class="st0" d="M-498.8-922.9c-0.8,0.4-1.7,0.6-2.6,0.7c1-0.6,1.7-1.5,2-2.5c-0.9,0.5-1.9,0.9-2.9,1.1
		c-1.7-1.8-4.6-1.9-6.4-0.2c-0.9,0.9-1.4,2.1-1.4,3.3c0,0.3,0,0.7,0.1,1c-3.7-0.2-7.1-1.9-9.4-4.8c-1.2,2.1-0.6,4.7,1.4,6.1
		c-0.7,0-1.4-0.2-2.1-0.6v0.1c0,2.2,1.5,4,3.6,4.5c-0.4,0.1-0.8,0.2-1.2,0.1c-0.3,0-0.6,0-0.9-0.1c0.6,1.8,2.3,3.1,4.2,3.2
		c-1.6,1.3-3.6,1.9-5.6,1.9c-0.4,0-0.7,0-1.1-0.1c2.1,1.3,4.5,2,7,2c7.1,0,12.9-5.7,12.9-12.7c0-0.1,0-0.1,0-0.2c0-0.2,0-0.4,0-0.6
		C-500.2-921.2-499.5-922-498.8-922.9z"/>
</g>
</svg>
