<svg xmlns="http://www.w3.org/2000/svg" width="23.82" height="23.935" viewBox="0 0 23.82 23.935"><defs><style>.a{fill:#484848;fill-rule:evenodd;}</style></defs><path class="a" d="M20.6,3.478A11.863,11.863,0,0,0,1.932,17.789L.25,23.935l6.287-1.649A11.848,11.848,0,0,0,12.2,23.729h0A11.865,11.865,0,0,0,20.6,3.478ZM12.21,21.726h0a9.845,9.845,0,0,1-5.017-1.374l-.36-.214L3.1,21.117l1-3.638-.234-.373a9.858,9.858,0,1,1,8.351,4.62Zm5.407-7.383c-.3-.148-1.753-.865-2.025-.964s-.469-.148-.667.148-.765.964-.938,1.162-.346.223-.642.074a8.094,8.094,0,0,1-2.383-1.471,8.939,8.939,0,0,1-1.649-2.053c-.173-.3,0-.442.13-.6a8.383,8.383,0,0,0,.741-1.014.545.545,0,0,0-.025-.519c-.074-.148-.667-1.607-.913-2.2-.241-.578-.485-.5-.667-.509s-.37-.01-.568-.01a1.088,1.088,0,0,0-.79.371A3.324,3.324,0,0,0,6.183,9.225a5.765,5.765,0,0,0,1.21,3.066,13.21,13.21,0,0,0,5.062,4.475,16.962,16.962,0,0,0,1.689.624,4.063,4.063,0,0,0,1.867.117,3.053,3.053,0,0,0,2-1.409,2.476,2.476,0,0,0,.173-1.409c-.074-.124-.272-.2-.568-.346Zm0,0" transform="translate(-0.25)"/></svg>