<svg xmlns="http://www.w3.org/2000/svg" width="150" height="22" viewBox="0 0 150 22">
    <path fill="#787878" fill-rule="nonzero" d="M28.371 21.478H23.29v-7.583h-4.163l-.024.024v7.559h-5.08V1.516c.21-.05 4.656-.074 5.08-.025v6.953h4.163c.048-.218.024-.435.024-.678V1.444h5.106c-.024 6.685-.024 13.347-.024 20.032v.002zm40.157-20.01h5.763c2.187 6.661 4.352 13.348 6.54 20.033h-5.504c-.24-.734-.475-1.468-.707-2.204h-6.704c-.236.727-.471 1.454-.706 2.205h-5.505c2.282-6.686 4.563-13.349 6.823-20.034zm.988 12.839c.658.049 3.363.024 3.574-.025-.587-1.817-1.199-3.657-1.787-5.474h-.047c-.589 1.817-1.153 3.657-1.74 5.499zm80.077 7.219h-5.763c-1.153-2.737-2.282-5.5-3.411-8.237h-.048v8.213h-5.104V1.492c.047-.073.14-.05.212-.05h6.774c1.036 0 2.024.195 2.989.632 1.41.653 2.399 1.743 2.892 3.245.4 1.211.495 2.472.283 3.755-.26 1.405-.965 2.495-2.048 3.368-.163.12-.305.242-.493.387 1.224 2.906 2.47 5.79 3.716 8.697h.001zm-9.222-10.66c.119 0 .212-.024.306-.024.424 0 .824-.072 1.224-.194.776-.241 1.27-.774 1.435-1.598.071-.388.094-.8.024-1.212-.119-.727-.471-1.259-1.107-1.574-.588-.29-1.222-.363-1.882-.34v4.944-.001zm-34.157-9.398h6.893c1.058 0 2.094.194 3.058.654 1.506.702 2.494 1.866 2.964 3.488.4 1.429.47 2.859 0 4.288a5.443 5.443 0 0 1-1.694 2.47l-.636.51c1.248 2.883 2.47 5.765 3.717 8.672h-5.763c-1.129-2.738-2.282-5.475-3.41-8.236-.024 0-.048 0-.048.024v8.212h-5.08V1.468zm5.105 9.399c.259.024.517-.025.776-.05a3.444 3.444 0 0 0 1.176-.338c.494-.266.8-.653.965-1.187.14-.46.165-.944.095-1.405-.119-.92-.66-1.501-1.53-1.769a4.299 4.299 0 0 0-1.482-.169v4.918zM98.12 6.773v2.084h3.977v5.304H98.12v2.01s0 .025.024.025l.024.025h6.68c.024.024.048.024.048.049v.024c-.424 1.744-.871 3.488-1.295 5.256H93.017V1.517h10.444l.777 5.28c-2.048-.024-4.07-.024-6.117-.024zm23.618-5.305h10.446c.258 1.743.517 3.513.777 5.28h-6.117v2.085h3.953v5.305h-3.953v2.06h6.75c.025.192-.657 2.954-1.269 5.328h-10.587V1.468zm-82.783 7.34v5.305h-3.929c-.07.218-.07 1.405-.022 2.06h6.798a582.186 582.186 0 0 0-1.317 5.28H29.924V1.491c.188-.049 10.115-.072 10.42-.024.072.292.753 5.039.777 5.257h-6.093v2.06c1.294.024 2.611.024 3.93.024h-.002zM60.458.79c.119 2.035.236 4.046.353 6.104-.564-.387-1.176-.533-1.81-.63-2.4-.34-4.635 1.067-5.13 3.562-.234 1.187-.118 2.324.307 3.439.588 1.43 1.646 2.302 3.104 2.616a5.242 5.242 0 0 0 2.988-.217c.26-.098.494-.243.753-.412-.166 2.035-.305 4.021-.471 6.032-.14.097-.305.097-.446.121a9.79 9.79 0 0 1-2.658.217c-2.189-.096-4.165-.799-5.811-2.325-1.2-1.09-2.024-2.446-2.588-3.997a12.469 12.469 0 0 1-.682-3.222c-.048-.581-.071-1.187-.048-1.768.071-1.454.377-2.834.988-4.144a9.854 9.854 0 0 1 3.459-4.117C53.847 1.322 55.024.886 56.27.644c.707-.121 1.425-.17 2.141-.146.588.025 1.153.05 1.74.146a.686.686 0 0 0 .306.145V.79zm22.043 5.74h-3.976c.165-1.695.33-3.366.518-5.063h12.045c.164 1.697.329 3.343.517 5.063h-3.977v14.996h-5.08c-.048-4.99-.048-9.98-.048-14.995h.001zm-78.524 0H0c.166-1.694.353-3.366.517-5.063h11.999c.164 1.672.329 3.343.517 5.039-1.317.024-2.635 0-3.977 0v14.923h-5.08V6.53z" opacity=".4"/>
</svg>
