<?xml version="1.0" encoding="UTF-8"?>
<svg width="163px" height="17px" viewBox="0 0 163 17" version="1.1" xmlns="http://www.w3.org/2000/svg" xmlns:xlink="http://www.w3.org/1999/xlink">
    <title>twlogo_png_color</title>
    <g id="All-pages---Mobile" stroke="none" stroke-width="1" fill="none" fill-rule="evenodd">
        <g id="Mobile:-Home" transform="translate(-30.000000, -32.000000)">
            <g id="header">
                <g id="tw_logo_colour" transform="translate(30.000000, 32.000000)">
                    <g transform="translate(0.000000, 0.261538)" id="Combined-Shape">
                        <path d="M13.1433399,0.414093846 L13.1433399,4.05732462 L8.77856209,4.05732462 L8.77856209,16.6067246 L4.36504412,16.6067246 L4.36504412,4.05732462 L0,4.05732462 L0,0.414093846 L13.1433399,0.414093846 Z M19.9622797,0.414146154 C24.3997683,0.414146154 26.8975036,3.17651538 26.8975036,6.77214615 C26.8975036,9.10585385 25.854783,10.9630385 23.9147634,12.0107615 L26.8490297,16.6067769 L22.0719578,16.6067769 L19.768118,12.8918846 L18.1192078,12.8918846 L18.1192078,16.6067769 L13.7056899,16.6067769 L13.7056899,0.414146154 L19.9622797,0.414146154 Z M65.0317531,0.414041538 L65.0317531,4.05753385 L57.8781306,4.05753385 L57.8781306,7.03514923 L63.8436109,7.03514923 L63.8436109,10.48798 L57.8781306,10.48798 L57.8781306,12.9634415 L65.3713364,12.9634415 L65.3713364,16.6066723 L53.4646126,16.6066723 L53.4646126,0.414041538 L65.0317531,0.414041538 Z M35.7277889,0.496086154 L43.7302366,16.6050246 L39.1712971,16.6050246 L38.3381859,14.9021477 L32.4808395,14.9021477 L31.7262987,16.6050246 L27.4099948,16.6050246 L35.4366794,0.496086154 C35.5096565,0.333147692 35.6550781,0.333147692 35.7277889,0.496086154 Z M41.7557792,0.408758462 L45.1265766,7.83174308 L48.4004263,0.408758462 L52.8863887,0.408758462 L45.1023397,16.4959892 C45.0296289,16.6364354 44.883941,16.6364354 44.8112302,16.4959892 L37.0514181,0.408758462 L41.7557792,0.408758462 Z M70.2712443,0.404730769 L70.2712443,12.9538692 L77.2794453,12.9538692 L77.2794453,16.5973615 L65.8577263,16.5973615 L65.8577263,0.404730769 L70.2712443,0.404730769 Z M35.3882056,8.41076308 L33.8825863,11.7477323 L36.9364392,11.7477323 L35.3882056,8.41076308 Z M19.743881,4.08117692 L18.1192078,4.08117692 L18.1192078,9.43905385 L19.743881,9.43905385 C21.7323745,9.43905385 22.4597487,8.34373077 22.4597487,6.77214615 C22.4597487,5.2003 21.7323745,4.08117692 19.743881,4.08117692 Z" fill="#DA0912"></path>
                        <path d="M87.2638877,0.0877461538 L90.9071508,7.85046923 L93.7881492,0.391653846 L98.1217652,0.391653846 L91.4310413,16.4783615 C91.3593959,16.6653615 91.240342,16.6653615 91.1449923,16.4783615 L87.097159,7.9441 L83.0970005,16.4783615 C83.0256214,16.6418231 82.8825969,16.6418231 82.8112178,16.4783615 L76.0251443,0.391653846 L80.5728975,0.391653846 L83.5969204,7.85046923 L87.0734547,0.0877461538 C87.1211296,-0.0291615385 87.2162129,-0.0291615385 87.2638877,0.0877461538 Z M110.181208,0.391575385 L110.181208,3.96916 L103.156761,3.96916 L103.156761,6.87877538 L109.014373,6.87877538 L109.014373,10.2690985 L103.156761,10.2690985 L103.156761,12.71396 L110.5144,12.71396 L110.5144,16.2912831 L98.8231446,16.2912831 L98.8231446,0.391575385 L110.181208,0.391575385 Z M122.636246,0.391575385 L122.636246,3.96916 L115.611798,3.96916 L115.611798,6.87877538 L121.469411,6.87877538 L121.469411,10.2690985 L115.611798,10.2690985 L115.611798,12.71396 L122.969437,12.71396 L122.969437,16.2912831 L111.278182,16.2912831 L111.278182,0.391575385 L122.636246,0.391575385 Z M127.800709,0.391575385 L127.800709,6.98522154 L132.800974,0.391575385 L137.491485,0.391575385 L132.110355,7.28939077 L138.13443,16.2912831 L133.015378,16.2912831 L129.157711,10.5159908 C129.181682,10.5159908 128.252954,11.6149754 127.800709,12.1526985 L127.800709,16.2912831 L123.466827,16.2912831 L123.466827,0.391575385 L127.800709,0.391575385 Z M142.974571,0.391575385 L142.974571,12.71396 L149.855994,12.71396 L149.855994,16.2912831 L138.640955,16.2912831 L138.640955,0.391575385 L142.974571,0.391575385 Z M151.120203,0.391575385 L154.786904,6.86831385 L158.429901,0.391575385 L162.97792,0.391575385 L156.882466,10.6797138 L156.882466,16.2912831 L152.548584,16.2912831 L152.548584,10.7966215 L146.35778,0.391575385 L151.120203,0.391575385 Z" fill="#1D1D1B"></path>
                    </g>
                </g>
            </g>
        </g>
    </g>
</svg>