<svg xmlns:xlink="http://www.w3.org/1999/xlink" xmlns="http://www.w3.org/2000/svg" width="192" height="74" viewBox="0 0 192 74"><defs><path id="a" d="M33.936.086v38.422H.233V.086h33.703z"/></defs><g fill="none" fill-rule="evenodd"><path fill="#939598" d="M140.827 15.837c2.75-3.82 7.238-5.534 11.22-4.206 4.054 1.352 5.369 4.878 4.431 8.736-.622 2.563-5.158 3.543-6.954 1.604-.815-.88-.621-1.941-.285-2.955.313-.944.724-1.842.74-2.877.04-2.605-1.652-3.815-4.124-2.87-2.16.824-3.54 2.5-4.647 4.418-1.692 2.932-2.51 6.128-2.537 9.491-.05 6.172.012 12.343-.043 18.514-.01 1.084.373 1.294 1.34 1.253 1.637-.068 3.279-.026 4.919-.015.422.003.955-.16.99.575.037.81-.519.697-1.013.697h-38.26c-.452 0-.948.091-.962-.62-.012-.693.446-.66.922-.658 1.413.007 2.826-.034 4.236.018.864.031 1.196-.227 1.194-1.146a5387.78 5387.78 0 01.004-31.038c.003-1.048-.38-1.34-1.364-1.293-1.363.065-2.732.01-4.099.022-.514.005-.885-.078-.897-.72-.012-.71.445-.656.916-.655 3.872.004 7.744.044 11.615-.023 1.208-.02 1.027.68 1.027 1.4-.003 10.573.02 21.147-.032 31.72-.006 1.313.227 1.816 1.688 1.758 3.138-.128 6.285-.082 9.427-.015 1.044.023 1.284-.31 1.28-1.31a4833.344 4833.344 0 01-.002-31.038c.003-.943-.246-1.28-1.217-1.228-1.408.076-2.823.014-4.235.021-.487.003-.918-.003-.89-.687.027-.613.442-.594.858-.594 3.825-.002 7.652.02 11.478-.016.918-.009 1.028.438 1.018 1.18-.029 2.148-.01 4.296-.01 6.444.841-1.305 1.395-2.675 2.268-3.887z"/><path fill="#939598" d="M97.647 30.463c0-1.86.072-3.724-.017-5.58-.122-2.54-.454-5.063-1.428-7.443-1.085-2.653-2.937-4.434-5.868-4.935-6.26-1.069-11.167 2.38-12.374 8.776-.89 4.716-.751 9.488-.493 14.244.15 2.772.765 5.476 2.164 7.94 2.091 3.682 5.587 5.178 10.538 4.503 3.362-.459 5.631-2.77 6.664-6.69.936-3.558.802-7.193.814-10.815M77.311 41.886v6.872c0 2.996.033 5.992-.019 8.987-.016.963.312 1.274 1.257 1.23 1.364-.065 2.733-.023 4.1-.011.43.003.961-.136.985.59.021.692-.43.664-.911.663-6.014-.005-12.028-.003-18.042-.007-.394 0-.859.102-.886-.54-.028-.671.419-.708.903-.708 1.367-.002 2.737-.057 4.1.017 1.008.055 1.342-.266 1.329-1.298-.052-4.311-.022-8.624-.021-12.935 0-9.941-.027-19.882.032-29.822.008-1.301-.398-1.64-1.616-1.55-1.314.097-2.641.019-3.962.023-.387.002-.737-.007-.767-.529-.03-.524.216-.748.723-.748 3.964.001 7.928.005 11.891-.006.789-.002.7.528.7 1.028v6.043c.522-1.013.846-1.74 1.253-2.417 2.943-4.903 8.208-6.948 14.23-5.144 7.18 2.152 11.397 7.24 13.064 14.4 2.184 9.379-3.76 19.81-12.898 22.629-3.92 1.21-7.818 1.218-11.33-1.416-1.378-1.034-2.415-2.325-3.17-3.855-.252-.51-.487-1.029-.729-1.543l-.216.047M21.466 28.261c-2.748 1.951-5.666 2.768-8.425 3.912C7.921 34.297 5.9 38.62 7.66 43.897c.7 2.1 2.134 3.318 4.337 3.621 3.09.424 5.669-.423 7.533-3.034.117-.163.15-.444.508-.418.248.94.034 1.72-.703 2.407-1.154 1.074-2.456 1.895-3.978 2.299-3.374.896-6.783.925-10.104-.132-2.96-.942-4.887-2.923-5.187-6.171-.334-3.606.554-6.666 3.874-8.649 1.616-.965 3.372-1.584 5.167-2.108 2.798-.816 5.54-1.791 8.28-2.777 2.768-.995 4.19-2.914 4.279-5.83.064-2.132.174-4.264-.28-6.375-.594-2.763-2.175-4.129-5.03-4.272-1.739-.087-3.455-.036-5.072.772-1.317.657-1.97 1.667-2.007 3.131-.034 1.374.236 2.706.444 4.05.33 2.13-.644 3.414-2.78 3.695-3.42.45-5.147-1.611-4.336-5.25.54-2.421 1.88-4.38 4.061-5.562 5.457-2.957 11.12-3.046 16.656-.397 3.891 1.862 5.304 5.468 5.348 9.585.067 6.31.018 12.62.018 18.93 0 .772.034 1.546-.004 2.315-.22 4.355 2.808 4.444 5.36 3.281.207-.094.41-.198.603-.318.364-.227.67-.435 1.012.09.334.516.06.72-.316.965-2.968 1.933-6.208 2.223-9.408.983-3.096-1.2-3.914-4.095-4.271-7.086-.465-3.891-.1-7.8-.197-11.7-.012-.486-.001-.972-.001-1.68"/><g transform="translate(156.117 10.916)"><mask id="b" fill="#fff"><use xlink:href="#a"/></mask><path fill="#939598" d="M17.096 15.27c2.414 0 4.83-.052 7.24.025.982.031 1.318-.367 1.325-1.229.01-1.452.093-2.91-.013-4.353-.162-2.22-.406-4.46-1.972-6.24-2.622-2.977-8.579-2.77-11.402.396-2.71 3.039-3.102 6.855-3.518 10.655-.085.776.435.748.961.747 2.46-.005 4.92-.002 7.379-.001m4.184 1.266c-3.78.001-7.56.025-11.34-.016-.903-.01-1.257.206-1.315 1.188-.217 3.732-.106 7.451.733 11.088 1.173 5.082 4.376 8.047 8.664 8.317 6.531.41 11.12-2.066 13.139-7.096.203-.504.396-1.014.567-1.53.163-.495.417-.802.994-.627.702.213.413.71.284 1.107-1.692 5.24-5.292 8.453-10.712 9.274-4.592.697-9.108.067-13.195-2.34-5.232-3.083-8.022-7.79-8.722-13.72-1.044-8.848 3.642-17.01 11.746-20.66 10.267-4.625 21.575 2.46 21.811 13.637.022 1.027-.181 1.425-1.316 1.403-3.778-.07-7.558-.026-11.338-.025" mask="url(#b)"/></g><path fill="#939598" d="M37.709 42.12c0-1.588-.003-3.176.001-4.764.001-.372-.262-.878.375-.982.549-.089.65.342.784.747.614 1.853 1.256 3.694 2.345 5.342 2.663 4.032 6.392 5.925 11.242 5.572 2.814-.204 5.042-2.08 5.614-4.715.806-3.706-.053-6.074-2.873-7.576-2.985-1.59-6.292-2.373-9.433-3.575-2.145-.82-4.202-1.757-5.588-3.713-3.96-5.591-1.557-15.798 8.047-17.252 2.905-.44 5.607.139 8.252 1.244 1.002.419 1.946.666 2.936-.146.526-.431 1.034-.278 1.032.572-.008 2.723 0 5.446-.005 8.169 0 .302.063.668-.397.737-.461.07-.647-.213-.777-.588-.518-1.501-1.053-2.995-1.82-4.394-2.556-4.665-8.729-5.97-13.06-2.842-2.852 2.06-3.536 7.57.432 9.637 2.89 1.506 6.013 2.336 9.056 3.401 2.067.724 4.113 1.466 5.937 2.709 3.798 2.585 5.156 6.211 3.978 10.645-1.338 5.037-5.836 8.592-11.13 8.976-3.372.245-6.483-.628-9.592-1.72-1.489-.523-2.982-1.12-4.406.396-.59.629-1.033.052-1.033-.71.002-1.723 0-3.446 0-5.17h.083"/><path fill="#8CBACD" d="M18.059 39.635c.002 2.142-1.546 3.718-3.657 3.724-2.09.006-3.698-1.611-3.688-3.71.01-2.095 1.658-3.79 3.678-3.783 2.033.007 3.665 1.685 3.667 3.769"/><path fill="#939598" d="M119.25 4.023c-.015 2.068-1.671 3.763-3.674 3.76-1.955-.002-3.68-1.782-3.678-3.793a3.67 3.67 0 013.713-3.694c2.084.006 3.652 1.613 3.638 3.727M2.854 69.677v4.202H1.688v-4.202H.21V68.67h4.124v1.006h-1.48zm5.573-1.006h1.165v5.208H8.427V71.83H6.35v2.049H5.185V68.67H6.35v2.176h2.077V68.67zm6.216 0v1.036h-2.6v1.073h2.338v.99h-2.338v1.08h2.682v1.029h-3.848V68.67h3.766zm3.093 5.208V68.67H18.9v4.172h2.226v1.036h-3.391zm6.297-.984c.33 0 .59-.12.781-.361.192-.24.288-.57.288-.987V68.67h1.165v2.913c0 .755-.209 1.335-.627 1.74-.419.404-.954.607-1.607.607-.652 0-1.189-.204-1.61-.611-.42-.407-.63-.986-.63-1.736V68.67h1.165v2.876c0 .417.097.746.291.987.194.24.456.361.784.361zm6.38-4.224h1.405l-1.629 2.51 1.763 2.698h-1.419l-1.113-1.714-1.106 1.714H26.91l1.755-2.667-1.636-2.54h1.397l.994 1.541.994-1.542zm4.423 4.224c.329 0 .59-.12.78-.361.193-.24.289-.57.289-.987V68.67h1.165v2.913c0 .755-.21 1.335-.628 1.74-.418.404-.953.607-1.606.607-.652 0-1.189-.204-1.61-.611-.42-.407-.631-.986-.631-1.736V68.67h1.165v2.876c0 .417.098.746.292.987.194.24.455.361.784.361zm7.68-2.495c0 .834-.331 1.373-.993 1.616l1.322 1.863H41.41l-1.157-1.662h-.807v1.662H38.28V68.67h1.98c.812 0 1.39.137 1.737.41.346.273.52.713.52 1.319zm-1.404.618c.144-.13.216-.334.216-.615 0-.28-.074-.473-.224-.577-.15-.104-.41-.157-.784-.157h-.874v1.543h.851c.399 0 .67-.065.815-.194zm4.714 2.86H44.66v-2.055l-1.808-3.152h1.263l1.128 1.937 1.128-1.937h1.263l-1.808 3.152v2.056zm6.552-4.201v4.202h-1.166v-4.202h-1.48V68.67h4.125v1.006h-1.48zm6.566.723c0 .834-.33 1.373-.993 1.616l1.322 1.863H57.84l-1.158-1.662h-.807v1.662h-1.166V68.67h1.98c.812 0 1.391.137 1.737.41.346.273.52.713.52 1.319zm-1.404.618c.144-.13.217-.334.217-.615 0-.28-.075-.473-.225-.577-.149-.104-.41-.157-.784-.157h-.874v1.543h.852c.398 0 .67-.065.814-.194zm6.32 2.86l-.485-1.124h-2.19l-.485 1.125h-1.24l2.256-5.208h1.128L65.1 73.88h-1.24zm-1.576-3.657l-.658 1.512h1.308l-.65-1.512zm5.028 1.765l1.33-3.315h1.262l-2.1 5.208h-.985l-2.1-5.208h1.263l1.33 3.315zm6.977-3.315v1.036h-2.6v1.073h2.339v.99H71.69v1.08h2.682v1.029h-3.848V68.67h3.765zm1.121 5.208V68.67h1.165v4.172h2.227v1.036H75.41zm8.614-1.028c.573 0 1.04-.226 1.404-.678l.747.767c-.592.666-1.29.998-2.095.998-.805 0-1.467-.253-1.987-.76-.52-.506-.781-1.146-.781-1.918s.265-1.417.796-1.933c.53-.517 1.179-.775 1.946-.775.856 0 1.574.325 2.151.976l-.724.82c-.369-.458-.827-.686-1.375-.686-.438 0-.813.143-1.124.428-.312.286-.467.67-.467 1.155 0 .484.147.873.44 1.166.294.293.65.44 1.069.44zm3.07 1.028V68.67h1.166v4.172h2.226v1.036h-3.392zm6.298-.984c.329 0 .59-.12.78-.361.193-.24.288-.57.288-.987V68.67h1.166v2.913c0 .755-.21 1.335-.628 1.74-.418.404-.953.607-1.606.607-.652 0-1.189-.204-1.61-.611-.42-.407-.631-.986-.631-1.736V68.67h1.165v2.876c0 .417.097.746.292.987.194.24.455.361.784.361zm5.73.984h-2.286V68.67h2.032c.354 0 .659.042.915.127.257.084.45.198.58.343.233.268.35.57.35.908 0 .408-.131.71-.395.91-.09.069-.152.112-.187.13a5.309 5.309 0 01-.187.085c.324.07.581.215.773.436.192.221.288.496.288.823 0 .363-.125.683-.374.961-.289.323-.792.485-1.509.485zm-1.12-3.1h.552c.324 0 .564-.034.721-.104.157-.07.236-.22.236-.45 0-.231-.073-.384-.217-.459-.144-.074-.388-.111-.732-.111h-.56v1.125zm0 2.116h.799c.334 0 .584-.04.75-.123.168-.082.251-.243.251-.484 0-.24-.088-.4-.265-.477-.177-.077-.46-.115-.848-.115h-.687v1.2zm9.54-4.224v1.02h-2.42v1.126h2.3v1.02h-2.3v2.042h-1.166V68.67h3.586zm5.222 1.729c0 .834-.331 1.373-.994 1.616l1.323 1.863h-1.435l-1.158-1.662h-.807v1.662h-1.165V68.67h1.98c.812 0 1.39.137 1.737.41.346.273.519.713.519 1.319zm-1.405.618c.145-.13.217-.334.217-.615 0-.28-.075-.473-.224-.577-.15-.104-.411-.157-.785-.157h-.874v1.543h.852c.398 0 .67-.065.814-.194zm6.096-.961a1.433 1.433 0 00-1.101-.492c-.436 0-.804.164-1.102.492a1.701 1.701 0 00-.449 1.188c0 .465.15.86.449 1.185.298.325.666.488 1.102.488.435 0 .803-.163 1.101-.488.3-.326.449-.72.449-1.185 0-.464-.15-.86-.449-1.188zm-1.105 3.874c-.772 0-1.422-.257-1.95-.771s-.792-1.154-.792-1.919c0-.764.264-1.404.792-1.918s1.178-.771 1.95-.771 1.422.257 1.95.771.792 1.154.792 1.918c0 .765-.264 1.405-.792 1.919s-1.178.77-1.95.77zm8.404-3.33l-1.412 2.846h-.694l-1.405-2.846v3.278h-1.165V68.67h1.576L123 71.532l1.352-2.86h1.569v5.207h-1.166V70.6zm6.634-.924v4.202h-1.165v-4.202h-1.48V68.67h4.125v1.006h-1.48zm6.567.723c0 .834-.33 1.373-.993 1.616l1.322 1.863h-1.434l-1.158-1.662h-.807v1.662h-1.166V68.67h1.98c.812 0 1.39.137 1.737.41.346.273.52.713.52 1.319zm-1.404.618c.144-.13.216-.334.216-.615 0-.28-.074-.473-.224-.577-.15-.104-.41-.157-.784-.157h-.874v1.543h.851c.399 0 .67-.065.815-.194zm6.32 2.86l-.486-1.124h-2.188l-.486 1.125h-1.24l2.256-5.208h1.128l2.256 5.208h-1.24zm-1.576-3.657l-.658 1.512h1.308l-.65-1.512zm5.028 1.765l1.33-3.315h1.262l-2.1 5.208h-.986l-2.099-5.208h1.263l1.33 3.315zm6.977-3.315v1.036h-2.6v1.073h2.339v.99H150.7v1.08h2.682v1.029h-3.847V68.67h3.765zm1.12 5.208V68.67h1.166v4.172h2.227v1.036h-3.392zm7.845-2.213l.927-2.995h1.217l.92 2.995 1.038-2.995h1.262l-1.823 5.208h-.866l-1.143-3.621-1.136 3.62h-.866l-1.823-5.207h1.262l1.031 2.995zm9.75-2.995v1.036h-2.6v1.073h2.338v.99h-2.338v1.08h2.682v1.029h-3.848V68.67h3.766zm4.885 0v1.036h-2.6v1.073h2.339v.99h-2.338v1.08h2.682v1.029h-3.848V68.67h3.765zm1.121 0h1.165v2.138l1.973-2.138h1.442l-2.077 2.302c.18.249.51.712.993 1.39.483.678.845 1.183 1.084 1.516h-1.36l-1.532-2.056-.523.58v1.476h-1.165V68.67zm5.304 5.208V68.67h1.166v4.172h2.226v1.036h-3.392zm6.037 0h-1.166v-2.056l-1.808-3.152h1.263l1.128 1.937 1.128-1.937h1.263l-1.808 3.152v2.056z"/></g></svg>