<?xml version="1.0" encoding="utf-8"?>
<!-- Generator: Adobe Illustrator 24.2.1, SVG Export Plug-In . SVG Version: 6.00 Build 0)  -->
<svg version="1.1" id="Layer_1" xmlns="http://www.w3.org/2000/svg" xmlns:xlink="http://www.w3.org/1999/xlink" x="0px" y="0px"
	 viewBox="0 0 163 17" style="enable-background:new 0 0 163 17;" xml:space="preserve">
<style type="text/css">
	.st0{fill-rule:evenodd;clip-rule:evenodd;fill:#9E9E9E;}
	.st1{fill-rule:evenodd;clip-rule:evenodd;fill:#FFFFFF;}
</style>
<g id="All-pages---Mobile">
	<path class="st0" d="M87.3,0.3l3.6,7.8l2.9-7.5h4.3l-6.7,16.1c-0.1,0.2-0.2,0.2-0.3,0l-4-8.5l-4,8.5c-0.1,0.2-0.2,0.2-0.3,0L76,0.7
		h4.5l3,7.5l3.5-7.8C87.1,0.2,87.2,0.2,87.3,0.3z M110.2,0.7v3.6h-7v2.9h5.9v3.4h-5.9V13h7.4v3.6H98.8V0.7H110.2z M122.6,0.7v3.6h-7
		v2.9h5.9v3.4h-5.9V13h7.4v3.6h-11.7V0.7H122.6z M127.8,0.7v6.6l5-6.6h4.7l-5.4,6.9l6,9H133l-3.9-5.8c0,0-0.9,1.1-1.4,1.6v4.1h-4.3
		V0.7H127.8z M143,0.7V13h6.9v3.6h-11.2V0.7H143z M151.1,0.7l3.7,6.5l3.6-6.5h4.5l-6.1,10.3v5.6h-4.3v-5.5l-6.2-10.4H151.1z"/>
	<path class="st1" d="M13.1,0.7v3.6H8.8v12.5H4.4V4.3H0V0.7H13.1z M20,0.7c4.4,0,6.9,2.8,6.9,6.4c0,2.3-1,4.2-3,5.2l2.9,4.6h-4.8
		l-2.3-3.7h-1.6v3.7h-4.4V0.7H20z M65,0.7v3.6h-7.2v3h6v3.5h-6v2.5h7.5v3.6H53.5V0.7H65z M35.7,0.8l8,16.1h-4.6l-0.8-1.7h-5.9
		l-0.8,1.7h-4.3l8-16.1C35.5,0.6,35.7,0.6,35.7,0.8z M41.8,0.7l3.4,7.4l3.3-7.4h4.5l-7.8,16.1c-0.1,0.1-0.2,0.1-0.3,0L37.1,0.7H41.8
		z M70.3,0.7v12.5h7v3.6H65.9V0.7H70.3z M35.4,8.7L33.9,12h3.1L35.4,8.7z M19.7,4.3h-1.6v5.4h1.6c2,0,2.7-1.1,2.7-2.7
		C22.5,5.5,21.7,4.3,19.7,4.3z"/>
</g>
</svg>
