<svg xmlns="http://www.w3.org/2000/svg" width="90" height="29" viewBox="0 0 90 29">
    <g fill="#787878" fill-rule="nonzero">
        <path d="M66.607 7.49c1.301-1.806 3.424-2.617 5.307-1.989 1.918.64 2.54 2.307 2.096 4.132-.294 1.212-2.44 1.676-3.29.759-.385-.417-.293-.918-.134-1.398.148-.446.342-.871.35-1.36.019-1.233-.781-1.805-1.95-1.358-1.022.39-1.675 1.182-2.198 2.09-.8 1.386-1.188 2.898-1.2 4.488-.024 2.92.005 5.838-.02 8.757-.005.513.176.612.633.593.774-.032 1.551-.013 2.327-.007.2.001.451-.076.468.272.017.383-.246.33-.48.33H50.422c-.214 0-.449.042-.455-.294-.006-.328.21-.312.436-.311.668.003 1.337-.016 2.003.008.41.015.566-.107.565-.542-.013-4.893-.013-9.786.002-14.68.001-.496-.18-.634-.645-.611-.645.03-1.292.004-1.939.01-.243.002-.418-.037-.424-.34-.006-.336.21-.31.433-.31 1.832.002 3.663.02 5.494-.011.571-.01.485.321.485.662 0 5 .01 10.002-.015 15.003-.002.62.108.859.799.831 1.484-.06 2.972-.039 4.458-.007.494.01.608-.147.606-.62-.016-4.893-.016-9.786-.001-14.68.001-.446-.116-.605-.576-.58-.666.035-1.335.006-2.003.01-.23 0-.434-.002-.42-.326.012-.29.208-.28.405-.28 1.81-.001 3.62.009 5.429-.008.434-.004.486.207.481.558-.013 1.016-.004 2.032-.004 3.048.397-.617.66-1.265 1.072-1.839z"/>
        <path d="M46.184 14.408c0-.88.034-1.761-.008-2.639-.057-1.201-.214-2.395-.675-3.52-.513-1.255-1.39-2.098-2.775-2.334-2.961-.506-5.282 1.125-5.853 4.15-.421 2.23-.355 4.488-.233 6.737.07 1.311.362 2.59 1.023 3.756.99 1.741 2.643 2.449 4.985 2.13 1.59-.218 2.663-1.31 3.151-3.165.443-1.682.38-3.402.385-5.115m-9.618 5.403v3.25c0 1.417.016 2.834-.009 4.25-.008.456.148.603.595.583.645-.031 1.292-.011 1.939-.006.203.002.454-.064.466.28.01.327-.204.313-.431.313-2.845-.002-5.69-.001-8.534-.003-.186 0-.406.048-.419-.256-.013-.317.198-.335.427-.335.647 0 1.295-.027 1.94.008.476.026.634-.125.628-.613-.024-2.04-.01-4.08-.01-6.118 0-4.702-.013-9.404.015-14.105.004-.616-.188-.776-.764-.733-.621.045-1.25.009-1.874.01-.183.001-.348-.003-.363-.25-.014-.248.103-.354.342-.354 1.875 0 3.75.003 5.624-.002.374-.001.332.25.332.486v2.858c.246-.48.4-.823.592-1.143 1.392-2.32 3.882-3.286 6.73-2.433 3.397 1.018 5.391 3.424 6.18 6.81 1.032 4.437-1.779 9.37-6.1 10.704-1.855.572-3.699.576-5.36-.67a5.003 5.003 0 0 1-1.499-1.823c-.12-.242-.23-.487-.345-.73l-.102.022m-26.413-6.444c-1.3.922-2.68 1.309-3.985 1.85-2.422 1.005-3.378 3.05-2.545 5.545.331.993 1.01 1.57 2.051 1.713 1.462.2 2.682-.2 3.563-1.435.056-.077.071-.21.24-.198.118.445.017.814-.332 1.138-.546.508-1.162.897-1.882 1.088-1.595.424-3.208.437-4.778-.063-1.4-.445-2.312-1.382-2.454-2.918-.158-1.706.262-3.153 1.833-4.091.764-.456 1.594-.75 2.443-.997 1.324-.386 2.62-.847 3.917-1.314 1.309-.47 1.981-1.378 2.023-2.757.03-1.008.083-2.017-.132-3.015-.28-1.307-1.029-1.953-2.38-2.02-.822-.042-1.633-.018-2.398.364-.623.311-.932.789-.95 1.481-.015.65.112 1.28.21 1.916.157 1.007-.304 1.615-1.314 1.747-1.618.213-2.434-.761-2.05-2.483.254-1.145.888-2.071 1.92-2.63 2.58-1.399 5.26-1.441 7.878-.188 1.84.88 2.508 2.586 2.53 4.533.03 2.985.008 5.97.008 8.954 0 .365.016.731-.002 1.095-.104 2.06 1.328 2.102 2.535 1.552.098-.045.194-.094.285-.15.172-.108.317-.207.479.042.158.244.028.34-.15.456-1.404.914-2.936 1.052-4.45.465-1.464-.568-1.85-1.937-2.02-3.351-.22-1.84-.047-3.69-.093-5.534-.005-.23 0-.46 0-.795M81.925 12.385c1.142 0 2.285-.024 3.424.012.465.015.624-.173.627-.581.005-.687.044-1.377-.006-2.059-.077-1.05-.192-2.11-.933-2.951-1.24-1.408-4.057-1.31-5.393.187-1.281 1.437-1.467 3.242-1.664 5.04-.04.366.206.353.455.353 1.164-.003 2.327-.001 3.49 0m1.979.598c-1.788 0-3.576.012-5.364-.008-.427-.004-.594.098-.621.562-.103 1.766-.05 3.525.346 5.245.555 2.403 2.07 3.806 4.098 3.933 3.089.194 5.26-.977 6.214-3.356.096-.238.188-.48.269-.723.077-.235.197-.38.47-.297.332.1.195.336.134.524-.8 2.478-2.503 3.998-5.066 4.386-2.172.33-4.308.032-6.241-1.107-2.475-1.458-3.794-3.684-4.126-6.489-.493-4.185 1.723-8.045 5.556-9.772 4.856-2.187 10.204 1.164 10.316 6.45.01.486-.086.674-.622.664-1.787-.033-3.575-.012-5.363-.012"/>
        <path d="M17.835 19.922v-2.254c.001-.176-.123-.415.178-.464.26-.042.308.162.371.353.29.877.594 1.747 1.11 2.527 1.259 1.907 3.022 2.802 5.316 2.635 1.331-.096 2.385-.984 2.656-2.23.38-1.753-.026-2.873-1.36-3.583-1.411-.752-2.975-1.122-4.46-1.69-1.015-.389-1.988-.832-2.644-1.757-1.873-2.644-.736-7.472 3.806-8.16 1.374-.208 2.652.066 3.903.589.474.198.92.315 1.389-.07.249-.203.489-.131.488.271-.004 1.288 0 2.576-.002 3.864 0 .143.03.316-.188.348-.218.033-.306-.1-.368-.278-.245-.71-.498-1.416-.86-2.078-1.21-2.206-4.13-2.824-6.178-1.344-1.348.974-1.672 3.58.205 4.558 1.367.712 2.844 1.105 4.283 1.608.978.343 1.945.694 2.808 1.282 1.796 1.222 2.439 2.937 1.882 5.035-.633 2.382-2.76 4.063-5.265 4.245-1.595.116-3.066-.297-4.536-.814-.705-.247-1.41-.53-2.084.188-.28.297-.489.024-.489-.336v-2.445h.04M56.402 1.903c-.007.978-.79 1.78-1.738 1.778-.924 0-1.74-.843-1.74-1.794A1.736 1.736 0 0 1 54.682.14c.986.003 1.727.763 1.72 1.763h.001zM8.541 18.746c.001 1.013-.73 1.759-1.73 1.762-.988.002-1.748-.762-1.744-1.755.005-.991.785-1.793 1.74-1.79.962.004 1.733.798 1.734 1.783"/>
    </g>
</svg>
