<svg xmlns="http://www.w3.org/2000/svg" width="120" height="29" viewBox="0 0 120 29">
    <path fill="#787878" fill-rule="nonzero" d="M59.377 9.673c-.175-1.207-.56-2.1-1.152-2.68-.59-.58-1.353-.87-2.283-.87-.422 0-.819.069-1.198.206a2.83 2.83 0 0 0-1.007.647 3.645 3.645 0 0 0-.749 1.107c-.202.446-.349.975-.436 1.59h6.825zM53.774 16.9a5.233 5.233 0 0 1-1.877-1.252c-.526-.547-.932-1.222-1.215-2.027-.284-.805-.425-1.722-.425-2.748 0-1.018.14-1.926.42-2.723.281-.798.67-1.472 1.17-2.023.499-.55 1.112-.982 1.796-1.263a5.899 5.899 0 0 1 2.298-.438c.866 0 1.653.146 2.362.438a4.905 4.905 0 0 1 1.808 1.262c.494.552.876 1.226 1.144 2.024.272.797.407 1.705.407 2.723v.528h-9.179c.061.727.191 1.356.394 1.888.204.53.47.968.798 1.308.33.342.709.591 1.137.753.428.161.89.24 1.385.24.362 0 .718-.046 1.07-.139.35-.093.667-.234.948-.42a2.43 2.43 0 0 0 .692-.702c.181-.283.283-.61.305-.984h2.217c-.089.65-.283 1.225-.582 1.719-.3.494-.683.91-1.148 1.246a5.14 5.14 0 0 1-1.59.764 6.837 6.837 0 0 1-1.911.259c-.886 0-1.695-.144-2.424-.433zm14.774.433c-.843 0-1.615-.14-2.312-.421a4.927 4.927 0 0 1-1.802-1.237c-.5-.543-.89-1.216-1.163-2.02-.272-.806-.41-1.733-.41-2.782 0-1.048.138-1.974.41-2.78.274-.805.662-1.477 1.163-2.015a4.972 4.972 0 0 1 1.802-1.232c.697-.28 1.468-.421 2.313-.421.701 0 1.336.092 1.904.275.54.168 1.044.437 1.486.793.423.344.76.762 1.02 1.253.259.49.425 1.042.499 1.656h-2.216a2.255 2.255 0 0 0-.853-1.69 2.668 2.668 0 0 0-.843-.439 3.267 3.267 0 0 0-.997-.151c-.52 0-.992.103-1.42.308-.43.207-.797.511-1.103.917-.308.404-.543.902-.71 1.493-.165.592-.248 1.27-.248 2.033 0 1.566.307 2.743.926 3.534.616.79 1.467 1.184 2.555 1.184.344 0 .678-.042.997-.128.302-.08.588-.215.842-.399.244-.18.44-.413.593-.697.15-.284.237-.625.26-1.022h2.217c-.073.652-.249 1.225-.527 1.719-.277.494-.635.91-1.068 1.246a4.667 4.667 0 0 1-1.504.764 6.168 6.168 0 0 1-1.81.259h-.001zm11.774-.281c-.246.06-.496.1-.748.118-.256.019-.527.028-.817.028-.685 0-1.218-.084-1.595-.253a1.816 1.816 0 0 1-.853-.746c-.192-.329-.307-.727-.349-1.192a18.52 18.52 0 0 1-.06-1.583v-7h-1.51v-1.74h1.51V1.64h2.15v3.044h1.984v1.74H78.05v7.101c0 .426.025.77.076 1.027.053.258.132.458.24.596.107.138.23.228.375.27.145.04.31.061.495.061.191 0 .375-.005.548-.016.173-.012.353-.032.538-.062v1.65zm1.52-.01V4.685h2.17v12.358h-2.17zm0-14.684V0h2.17v2.36h-2.17zm9.198 13.233c1.08 0 1.927-.393 2.544-1.179.618-.786.926-1.965.926-3.539 0-.793-.083-1.488-.25-2.083-.165-.596-.402-1.09-.71-1.483a2.96 2.96 0 0 0-1.101-.887 3.304 3.304 0 0 0-1.409-.298c-.517 0-.99.103-1.418.308-.429.207-.797.511-1.103.917-.307.404-.544.902-.71 1.493-.167.592-.25 1.27-.25 2.033 0 1.566.31 2.743.926 3.534.618.79 1.468 1.184 2.555 1.184zm0-11.165c.864 0 1.652.146 2.362.438a4.891 4.891 0 0 1 1.806 1.262c.496.552.877 1.226 1.146 2.024.27.797.406 1.705.406 2.723 0 1.049-.139 1.976-.417 2.781-.275.805-.666 1.478-1.17 2.02a4.904 4.904 0 0 1-1.806 1.238c-.701.28-1.477.42-2.327.42-.84 0-1.612-.14-2.311-.42a4.905 4.905 0 0 1-1.8-1.237c-.503-.543-.893-1.216-1.165-2.02-.273-.806-.409-1.733-.409-2.782 0-1.048.136-1.974.409-2.778.272-.807.662-1.478 1.165-2.018a4.95 4.95 0 0 1 1.8-1.231 6.171 6.171 0 0 1 2.311-.421zm9.346 1.853c.539-.644 1.11-1.113 1.712-1.41a4.31 4.31 0 0 1 1.924-.443c2.755 0 4.134 1.506 4.134 4.514v8.102h-2.184v-7.99c0-1-.175-1.726-.526-2.173-.352-.444-.938-.667-1.758-.667-1.107 0-2.21.658-3.302 1.977v8.853h-2.172V4.685h2.172V6.28zm-59.341 0c.539-.644 1.11-1.113 1.711-1.41a4.314 4.314 0 0 1 1.924-.443c2.757 0 4.134 1.506 4.134 4.514v8.102h-2.183v-7.99c0-1-.176-1.726-.528-2.173-.35-.444-.936-.667-1.756-.667-1.107 0-2.21.658-3.302 1.977v8.853H38.87V4.685h2.173V6.28zm73.577 11.054c-3.325 0-5.063-1.33-5.209-3.988h2.173c.021 1.496 1.028 2.245 3.026 2.245.93 0 1.62-.175 2.067-.526.447-.353.669-.835.669-1.448 0-.264-.042-.485-.132-.664-.09-.179-.261-.34-.515-.484-.255-.142-.616-.282-1.08-.42-.6-.176-1.203-.343-1.807-.5-.63-.145-1.251-.323-1.862-.534-.517-.183-.947-.406-1.285-.669a2.341 2.341 0 0 1-.75-.96c-.16-.377-.238-.852-.238-1.422 0-.516.104-.988.316-1.415.21-.426.515-.797.914-1.111a4.51 4.51 0 0 1 1.448-.742 6.2 6.2 0 0 1 1.889-.27c3.172 0 4.796 1.154 4.877 3.46h-2.172c-.06-1.175-.92-1.763-2.585-1.763-.33 0-.65.033-.956.1-.31.068-.578.17-.81.305a1.56 1.56 0 0 0-.549.516 1.335 1.335 0 0 0-.199.73c0 .248.023.447.072.601.048.154.18.295.393.427.214.13.545.26.992.388.447.126 1.066.287 1.855.482.734.18 1.372.365 1.913.557.543.19.997.423 1.358.696.362.274.635.613.815 1.017.18.405.273.898.273 1.483a3.53 3.53 0 0 1-.338 1.528c-.233.478-.566.9-.976 1.235-.46.37-.982.654-1.541.837-.603.206-1.283.309-2.046.309zM29.424 6.28c.54-.644 1.112-1.113 1.713-1.41a4.31 4.31 0 0 1 1.925-.443c2.754 0 4.133 1.506 4.133 4.514v8.102h-2.183v-7.99c0-1-.176-1.726-.527-2.173-.35-.444-.938-.667-1.757-.667-1.11 0-2.21.658-3.304 1.977v8.853h-2.171V4.685h2.171V6.28zM5.686 17.334c-.84 0-1.612-.14-2.31-.421a4.958 4.958 0 0 1-1.802-1.237c-.501-.543-.89-1.216-1.163-2.02C.137 12.85 0 11.922 0 10.873 0 9.826.137 8.9.41 8.094c.274-.805.663-1.477 1.164-2.015.504-.54 1.12-.96 1.802-1.233a6.166 6.166 0 0 1 2.31-.421c.704 0 1.339.092 1.907.275.54.168 1.044.437 1.486.793.421.344.762.762 1.019 1.253a4.71 4.71 0 0 1 .499 1.657H8.38a2.33 2.33 0 0 0-.26-.977 2.233 2.233 0 0 0-.594-.715 2.626 2.626 0 0 0-.84-.438 3.267 3.267 0 0 0-1-.151c-.515 0-.99.103-1.419.309-.428.206-.795.51-1.103.916-.304.404-.542.902-.708 1.493-.167.592-.25 1.27-.25 2.033 0 1.566.308 2.743.926 3.534.618.79 1.47 1.184 2.554 1.184.348 0 .68-.042.999-.128.302-.079.588-.214.84-.399.246-.18.442-.412.595-.697.153-.284.238-.625.26-1.022h2.217c-.074.652-.25 1.225-.526 1.72-.277.493-.633.91-1.07 1.245-.45.345-.96.604-1.502.764-.589.176-1.2.263-1.813.259zm17.121-9.362c1.117 1.688 1.045 3.803.026 5.405l.752.763a6.02 6.02 0 0 0-.617-7.69 5.81 5.81 0 0 0-4.404-1.731l-1.12-1.136a7.041 7.041 0 0 1 6.405 1.974 7.27 7.27 0 0 1 2.09 5.108 7.27 7.27 0 0 1-2.09 5.11c-.083.083-.17.156-.259.235l-2.577-2.614a3.564 3.564 0 0 0 .688-4.693 3.458 3.458 0 0 0-4.337-1.25l-.993-1.006a4.818 4.818 0 0 1 6.436 1.525zm-8.012 5.376c-1.117-1.686-1.043-3.801-.026-5.406l-.752-.762a6.023 6.023 0 0 0 .617 7.692 5.81 5.81 0 0 0 4.404 1.731l1.121 1.134a7.042 7.042 0 0 1-6.404-1.972 7.276 7.276 0 0 1-2.09-5.11c0-1.917.752-3.755 2.089-5.11.083-.085.172-.157.258-.234l2.58 2.613a3.562 3.562 0 0 0-.687 4.696 3.455 3.455 0 0 0 4.334 1.247l.995 1.006a4.82 4.82 0 0 1-6.438-1.525zM.318 20.052v-.52h119.169v.52H.317zm.042 8.385v-5.304h.692v4.678H3.63v.627l-3.27-.001zm5.76 0v-5.304h3.786v.626H6.812v1.624h2.896v.623H6.813v1.805h3.213v.627l-3.905-.001zm7.451-2.178h1.773L14.8 24.79a14.13 14.13 0 0 1-.371-1.1 6.795 6.795 0 0 1-.283 1.013l-.574 1.556zm-1.511 2.178l2.01-5.304h.746l2.142 5.304h-.788l-.612-1.606h-2.187l-.575 1.606h-.736zm7.796-.625h1.117c.345 0 .617-.034.813-.098a1.17 1.17 0 0 0 .47-.275c.164-.167.291-.39.383-.671.092-.282.138-.622.138-1.023 0-.554-.09-.98-.27-1.278-.18-.299-.397-.498-.656-.6-.185-.072-.484-.108-.895-.108h-1.099v4.052zm-.692.625v-5.304h1.803c.406 0 .717.026.932.076.3.07.555.197.766.38.277.236.483.539.62.907.137.367.205.787.205 1.26 0 .403-.046.76-.138 1.07a2.63 2.63 0 0 1-.357.774c-.13.187-.291.35-.477.48-.173.117-.38.206-.625.267a3.53 3.53 0 0 1-.84.09h-1.89.001zm6.946 0v-5.304h3.785v.626h-3.093v1.624h2.896v.623h-2.896v1.805h3.213v.627l-3.905-.001zm7.218-2.964h1.489c.316 0 .564-.033.742-.099a.792.792 0 0 0 .406-.318.869.869 0 0 0 .14-.475.796.796 0 0 0-.27-.62c-.18-.16-.463-.242-.85-.242h-1.657v1.755zm-.693 2.964v-5.304h2.32c.466 0 .822.048 1.064.143.243.095.437.265.582.505.146.241.218.507.218.8 0 .376-.12.692-.36.951-.24.258-.612.422-1.114.492.183.09.323.177.417.264.203.187.394.423.575.705l.91 1.444h-.871l-.693-1.104c-.155-.25-.322-.494-.498-.73a1.586 1.586 0 0 0-.353-.355 1.033 1.033 0 0 0-.315-.14 2.057 2.057 0 0 0-.386-.027h-.803v2.356h-.693zm6.686-1.705l.654-.058c.03.267.102.484.216.654.112.17.288.308.526.412.238.106.506.158.803.158.265 0 .498-.04.7-.12a.97.97 0 0 0 .452-.327.765.765 0 0 0 .148-.454.694.694 0 0 0-.143-.436c-.095-.124-.252-.228-.471-.313-.14-.055-.452-.141-.932-.258-.48-.117-.817-.228-1.01-.332a1.427 1.427 0 0 1-.559-.493 1.22 1.22 0 0 1-.184-.66c0-.268.075-.52.225-.751.16-.241.39-.426.657-.53a2.46 2.46 0 0 1 .96-.181 2.6 2.6 0 0 1 1.027.19c.295.126.524.313.683.56.16.245.245.523.258.835l-.665.05c-.036-.335-.156-.588-.362-.76-.206-.17-.51-.257-.912-.257-.42 0-.724.078-.916.234-.192.155-.287.342-.287.561 0 .192.067.348.203.472.133.123.482.249 1.044.378.563.129.949.241 1.158.338.305.142.53.322.675.541.145.218.218.47.218.754 0 .283-.08.548-.239.798-.168.257-.407.46-.687.582a2.368 2.368 0 0 1-1.009.209c-.474 0-.87-.07-1.19-.21a1.67 1.67 0 0 1-.754-.631 1.805 1.805 0 0 1-.286-.955zm13.333 1.08h1.117c.346 0 .617-.034.812-.098.198-.066.354-.157.471-.275.164-.167.292-.39.383-.671.092-.282.138-.622.138-1.023 0-.554-.09-.98-.27-1.278-.18-.299-.397-.498-.655-.6-.185-.072-.484-.108-.896-.108h-1.1v4.052zm-.692.625v-5.304h1.803c.406 0 .718.026.932.076.299.07.556.197.766.38.277.236.484.539.62.907.137.367.206.787.206 1.26 0 .403-.046.76-.14 1.07a2.63 2.63 0 0 1-.356.774c-.13.187-.291.35-.477.48a1.943 1.943 0 0 1-.625.267 3.536 3.536 0 0 1-.84.09h-1.89zm7.436-2.572c0 .64.17 1.142.508 1.51.34.368.765.552 1.276.552.522 0 .951-.185 1.288-.558.336-.37.504-.898.504-1.58 0-.432-.072-.809-.216-1.13a1.676 1.676 0 0 0-.631-.749 1.69 1.69 0 0 0-.933-.267c-.49 0-.913.172-1.266.512-.354.342-.53.911-.53 1.71zm-.714-.011c0-.88.233-1.569.7-2.067.466-.498 1.068-.748 1.806-.748.483 0 .918.117 1.307.35.388.235.683.561.886.98.21.444.314.931.306 1.423 0 .538-.107 1.02-.322 1.444-.199.408-.516.744-.91.963a2.57 2.57 0 0 1-1.27.328 2.45 2.45 0 0 1-1.322-.361 2.318 2.318 0 0 1-.881-.987 3.025 3.025 0 0 1-.3-1.325zm13.358 1.958h1.304c.223 0 .38-.01.47-.026.16-.03.294-.078.4-.144a.764.764 0 0 0 .265-.296.933.933 0 0 0 .104-.446.888.888 0 0 0-.15-.516.792.792 0 0 0-.416-.308c-.178-.06-.433-.088-.766-.088h-1.21v1.824zm0-2.451h1.132c.308 0 .526-.02.661-.06a.733.733 0 0 0 .399-.265.777.777 0 0 0 .133-.463.863.863 0 0 0-.125-.465.63.63 0 0 0-.357-.274c-.154-.05-.42-.075-.796-.075h-1.047v1.603-.001zm-.692 3.076v-5.304h1.964c.398 0 .72.054.961.161.243.107.431.273.568.496.138.223.206.457.206.7 0 .226-.061.44-.183.64a1.31 1.31 0 0 1-.55.484c.318.095.561.256.731.482.17.228.255.494.255.804 0 .248-.052.479-.155.692-.088.193-.22.362-.384.494a1.597 1.597 0 0 1-.573.262 3.41 3.41 0 0 1-.844.089H71.35zm9.992-5.303h.692v3.063c0 .534-.06.957-.178 1.27-.125.321-.352.59-.645.766-.31.196-.718.295-1.222.295-.49 0-.891-.086-1.203-.258a1.46 1.46 0 0 1-.669-.743c-.133-.324-.2-.767-.2-1.33v-3.063h.694v3.06c0 .46.042.8.127 1.02.084.216.23.385.434.503.207.118.458.178.756.178.509 0 .872-.118 1.089-.352.217-.233.325-.683.325-1.35V23.135zm3.263 3.598l.652-.058c.032.267.104.484.216.654.114.17.29.308.526.412.239.106.506.158.803.158.265 0 .499-.04.702-.12a.974.974 0 0 0 .45-.327.762.762 0 0 0 .148-.454.692.692 0 0 0-.143-.436c-.094-.124-.251-.228-.47-.313-.141-.055-.453-.141-.933-.258-.48-.117-.816-.228-1.01-.332a1.427 1.427 0 0 1-.557-.493 1.22 1.22 0 0 1-.185-.66c0-.268.075-.52.224-.751.15-.233.37-.41.658-.53a2.46 2.46 0 0 1 .96-.181c.388 0 .73.063 1.027.19.295.126.523.313.683.56.159.245.245.523.258.835l-.664.05c-.037-.335-.157-.588-.364-.76-.206-.17-.508-.257-.912-.257-.419 0-.723.078-.916.234-.19.155-.287.342-.287.561a.61.61 0 0 0 .203.472c.134.123.482.249 1.044.378.564.129.951.241 1.16.338.304.142.53.322.674.541.147.223.223.486.218.754 0 .283-.08.548-.239.798-.168.257-.407.46-.686.582a2.375 2.375 0 0 1-1.01.209c-.474 0-.87-.07-1.19-.21-.308-.13-.57-.35-.754-.631a1.805 1.805 0 0 1-.286-.955zm6.881 1.705v-5.304h.692v5.304h-.692zm3.559 0v-5.304h.71l2.75 4.164v-4.163h.663v5.304h-.71l-2.75-4.169v4.168h-.663zm6.952 0v-5.304h3.785v.626h-3.092v1.624h2.896v.623h-2.896v1.805h3.213v.627l-3.906-.001zm6.28-1.705l.653-.058c.03.267.103.484.216.654.112.17.288.308.527.412.238.106.505.158.803.158.264 0 .498-.04.7-.12a.975.975 0 0 0 .452-.327.765.765 0 0 0 .147-.454.697.697 0 0 0-.143-.436c-.095-.124-.252-.228-.47-.313-.142-.055-.453-.141-.933-.258-.48-.117-.817-.228-1.01-.332a1.418 1.418 0 0 1-.558-.493 1.212 1.212 0 0 1-.185-.66c0-.268.074-.52.226-.751.16-.241.389-.426.657-.53a2.46 2.46 0 0 1 .96-.181c.387 0 .729.063 1.025.19.298.126.525.313.685.56.16.245.245.523.257.835l-.665.05c-.035-.335-.157-.588-.362-.76-.205-.17-.51-.257-.912-.257-.419 0-.724.078-.915.234-.192.155-.287.342-.287.561 0 .192.067.348.203.472.133.123.48.249 1.043.378s.95.241 1.16.338c.304.142.528.322.674.541.145.218.218.47.218.754 0 .283-.08.548-.24.798a1.57 1.57 0 0 1-.687.582 2.367 2.367 0 0 1-1.008.209c-.474 0-.87-.07-1.19-.21-.308-.13-.57-.35-.754-.631a1.832 1.832 0 0 1-.288-.955zm6.529 0l.652-.058c.03.267.103.484.217.654.113.17.288.308.527.412.238.106.505.158.803.158.264 0 .497-.04.7-.12a.97.97 0 0 0 .45-.327.763.763 0 0 0 .148-.454.695.695 0 0 0-.142-.436c-.095-.124-.252-.228-.47-.313-.14-.055-.453-.141-.933-.258-.48-.117-.818-.228-1.01-.332a1.425 1.425 0 0 1-.56-.493 1.228 1.228 0 0 1-.184-.66c0-.268.076-.52.226-.751.15-.233.37-.41.658-.53.286-.121.607-.181.96-.181.387 0 .729.063 1.026.19.296.126.524.313.683.56.159.245.246.523.259.835l-.666.05c-.035-.335-.157-.588-.362-.76-.206-.17-.51-.257-.913-.257-.418 0-.723.078-.915.234-.191.155-.286.342-.286.561 0 .192.066.348.203.472.133.123.48.249 1.044.378.563.129.948.241 1.157.338.305.142.53.322.676.541.145.218.218.47.218.754 0 .283-.08.548-.24.798-.169.257-.407.46-.687.582a2.366 2.366 0 0 1-1.008.209c-.474 0-.871-.07-1.19-.21-.309-.13-.571-.35-.754-.631a1.79 1.79 0 0 1-.287-.955z" opacity=".4"/>
</svg>
