<svg xmlns="http://www.w3.org/2000/svg" xmlns:xlink="http://www.w3.org/1999/xlink" width="147" height="58" viewBox="0 0 147 58">
    <defs>
        <linearGradient id="a" x1="50%" x2="47.953%" y1="-10.272%" y2="120.492%">
            <stop offset="0%" stop-color="#E5E5E5"/>
            <stop offset="100%" stop-color="#2F2F2F"/>
        </linearGradient>
        <linearGradient id="b" x1="50%" x2="50%" y1="0%" y2="98.17%">
            <stop offset="0%" stop-color="#E9E9E9"/>
            <stop offset="100%" stop-color="#B4B4B4"/>
        </linearGradient>
        <linearGradient id="c" x1="50%" x2="50%" y1="0%" y2="100%">
            <stop offset="0%" stop-color="#ECECEC"/>
            <stop offset="100%" stop-color="#737373"/>
        </linearGradient>
        <linearGradient id="d" x1="10.627%" x2="10.627%" y1="0%" y2="91.824%">
            <stop offset="0%" stop-color="#F1F1F1"/>
            <stop offset="100%" stop-color="#717171"/>
        </linearGradient>
        <linearGradient id="e" x1="50%" x2="50%" y1="1.194%" y2="100%">
            <stop offset="0%" stop-color="#E2E2E2"/>
            <stop offset="100%" stop-color="#545454"/>
        </linearGradient>
        <path id="f" d="M26.72.082v21.415H.057V.082z"/>
        <linearGradient id="g" x1="50%" x2="50%" y1="0%" y2="124.285%">
            <stop offset="0%" stop-color="#F0F0F0"/>
            <stop offset="100%" stop-color="#9A9A9A"/>
        </linearGradient>
        <linearGradient id="i" x1="102.127%" x2="1.842%" y1="71.296%" y2="71.296%">
            <stop offset="0%" stop-color="#C0C0C0"/>
            <stop offset="16.45%" stop-color="#797979"/>
            <stop offset="30.363%" stop-color="#A0A0A0"/>
            <stop offset="46.506%" stop-color="#A0A0A0"/>
            <stop offset="59.795%" stop-color="#797979"/>
            <stop offset="91.651%" stop-color="#B6B6B6"/>
            <stop offset="100%" stop-color="#C0C0C0"/>
        </linearGradient>
    </defs>
    <g fill="none" fill-rule="evenodd">
        <path fill="url(#a)" d="M3.293 33.595c5.65-4.262 12.187-7.575 19.164-9.695a81.786 81.786 0 0 1 4.617-1.22c-.802-2.858-1.548-5.766-2.02-8.691-.295-1.838-.464-3.7-.423-5.562.02-.927.087-1.858.227-2.776.019-.127.077-.765.163-1.264a126.512 126.512 0 0 1-6.97 9.307c-5.361 6.494-6.403 7.777-11.877 14.723C3.9 31.252 1.725 34.001 0 36.274a61.985 61.985 0 0 1 3.293-2.68" transform="translate(10.33)"/>
        <path fill="url(#b)" d="M27.749 22.524A46.41 46.41 0 0 1 30.442 22l1.355-.229 1.363-.19a62.71 62.71 0 0 1 7.727-.585 44.314 44.314 0 0 1-5.184-3.846 108.628 108.628 0 0 1-3.063-2.743c-1.917-1.77-3.901-3.5-5.453-5.61a18.392 18.392 0 0 1-.316-.442 13.422 13.422 0 0 1-1.123-1.944 10.93 10.93 0 0 1-.42-1.036c-.052-.149-.378-.882-.293-1.007-.1.52-.158 1.157-.178 1.284-.14.918-.206 1.849-.227 2.776-.04 1.862.129 3.724.425 5.562.47 2.925 1.217 5.833 2.02 8.69.224-.052.448-.106.674-.155z" transform="translate(10.33)"/>
        <path fill="url(#c)" d="M44.21 21.026c3.715.125 7.436.622 11.111 1.439.92.206 1.824.464 2.74.709a41.476 41.476 0 0 1-1.31-2.072A50.716 50.716 0 0 1 51.27 0c.006.18-.806.844-.949 1.004a24.94 24.94 0 0 0-2.648 3.546c-1.186 1.924-1.904 4.088-3.346 5.857-1.256 1.538-2.797 2.722-4.546 3.665-.768.413-1.565.772-2.384 1.074a15.742 15.742 0 0 1-2.413.68c-.075.016-.422.116-.624.143.444.397.89.792 1.343 1.18a44.2 44.2 0 0 0 5.189 3.846 65.629 65.629 0 0 1 3.318.03z" transform="translate(10.33)"/>
        <path fill="url(#d)" d="M60.792 24.06a63.671 63.671 0 0 1 5.161 2.12c3.304 1.555 6.362 3.263 9.325 4.86 2.951 1.637 5.797 3.112 8.707 4.347 2.916 1.256 5.933 2.248 9.006 3.02 1.56.37 3.133.707 4.724.963l1.193.205 1.2.163c.8.123 1.606.19 2.413.276.806.09 1.615.114 2.426.19.811.039 1.624.085 2.439.104 1.033.018 2.068.016 3.105-.006a67.047 67.047 0 0 1-21.742-10.853A66.479 66.479 0 0 1 70.63 8.667a4.203 4.203 0 0 1-4.611 1.806 14.366 14.366 0 0 1-9.374-8.926 4.443 4.443 0 0 1-1.802 2.042 1.154 1.154 0 0 1-1.473-.198A8.578 8.578 0 0 1 51.27 0a50.724 50.724 0 0 0 5.48 21.103c.415.709.862 1.396 1.323 2.075.924.269 1.83.565 2.72.882z" transform="translate(10.33)"/>
        <path fill="url(#e)" d="M112.286 40.24a43.312 43.312 0 0 0 2.267-.147c-1.653-1.439-5.58-4.994-8.465-8.682-4.493-5.744-6.642-9.766-6.642-9.766.034.063-.431.61-.487.686a19.926 19.926 0 0 1-1.694 1.994 20.153 20.153 0 0 1-5.177 3.853c-.545.284-1.09.571-1.661.801a6.828 6.828 0 0 1-.873.29c-.113.03-.733.235-.806.18a67.053 67.053 0 0 0 21.743 10.853 62.94 62.94 0 0 0 1.795-.061" transform="translate(10.33)"/>
        <g transform="translate(109.718 18.596)">
            <mask id="h" fill="#fff">
                <use xlink:href="#f"/>
            </mask>
            <path fill="url(#g)" d="M20.26 20.884c.81-.15 1.632-.279 2.442-.45.81-.17 1.63-.322 2.434-.533l1.215-.297.369-.1C17.668 15.101 9.925 8.414 4.299.081a2.93 2.93 0 0 1-.261 1.5 3.008 3.008 0 0 1-2.72 1.736 2.983 2.983 0 0 1-1.26-.269s2.15 4.022 6.642 9.766c2.884 3.689 6.813 7.243 8.465 8.682.88-.077 1.761-.173 2.643-.271.819-.097 1.633-.224 2.453-.342" mask="url(#h)"/>
        </g>
        <path fill="#A0A0A0" fill-rule="nonzero" d="M74.905 55.622c-.795 0-1.22-.684-.901-1.368l16.605-35.4c.159-.315.53-.578.901-.578h.53c.372 0 .744.263.903.578l16.605 35.4c.318.684-.106 1.368-.902 1.368h-5.889c-.955 0-1.38-.316-1.857-1.315L96.6 44.67h-9.646l-4.302 9.69c-.265.63-.849 1.262-1.91 1.262h-5.836zm12.839-12.624h8.064l-4.032-8.68h-.053l-3.98 8.68z"/>
        <path fill="url(#i)" d="M6.104 44.599a44.417 44.417 0 0 1 3.57-3.63 57.19 57.19 0 0 1 3.936-3.276c5.463-4.146 11.786-7.368 18.533-9.43 1.688-.496 3.39-.96 5.117-1.338a45.03 45.03 0 0 1 2.605-.51l1.31-.223 1.318-.185a61.232 61.232 0 0 1 10.687-.54c3.592.122 7.19.607 10.746 1.4.89.2 1.764.452 2.65.69.897.263 1.777.552 2.64.862 1.728.62 3.388 1.32 4.992 2.061 3.195 1.513 6.152 3.174 9.017 4.727 2.854 1.593 5.607 3.027 8.42 4.229a57.047 57.047 0 0 0 8.71 2.937c1.508.36 3.03.687 4.569.936l1.153.2 1.161.159c.774.119 1.553.185 2.333.268.78.086 1.563.11 2.347.185.784.037 1.57.083 2.359.101 1.574.027 3.156.014 4.739-.066 1.585-.057 3.163-.23 4.748-.407.792-.094 1.58-.218 2.372-.333.783-.147 1.577-.27 2.36-.437.784-.165 1.578-.314 2.355-.519l1.174-.288 1.157-.318c1.543-.439 3.073-.975 4.608-1.549 3.058-1.17 6.111-2.54 9.21-3.836-2.555 2.132-5.142 4.222-7.978 6.084a47.472 47.472 0 0 1-4.429 2.604c-.383.202-.775.39-1.167.579l-1.18.53c-.784.366-1.591.676-2.395 1.004-3.234 1.262-6.617 2.2-10.071 2.84-1.725.346-3.475.553-5.232.733-.878.083-1.76.137-2.643.198-.883.031-1.77.074-2.655.066-.885-.006-1.773.002-2.66-.046l-1.33-.053-1.33-.097c-1.774-.134-3.537-.385-5.298-.663-3.558-.58-7.026-1.575-10.378-2.8-3.369-1.236-6.532-2.818-9.518-4.342-2.978-1.561-5.817-3.108-8.63-4.409a51.84 51.84 0 0 0-4.189-1.787 37.043 37.043 0 0 0-2.091-.709l-2.171-.604c-2.92-.77-5.948-1.23-9.014-1.507-6.14-.532-12.445-.096-18.622 1.092-6.166 1.197-12.185 3.314-17.884 6.245a65.571 65.571 0 0 0-4.209 2.35 55.28 55.28 0 0 0-4.03 2.665C5.265 48.35 2.693 50.474 0 52.443 1.965 49.79 3.873 47.12 6.104 44.6z"/>
        <g fill="#A0A0A0" fill-rule="nonzero">
            <path d="M58.287 54.878V26.592H50.7a1.007 1.007 0 0 1-1.008-1.006v-5.774c0-.53.424-1.007 1.008-1.007h23.558c.584 0 1.008.477 1.008 1.007v5.774c0 .53-.424 1.006-1.008 1.006h-7.587v28.286c0 .53-.478 1.007-1.008 1.007h-6.368c-.53 0-1.008-.477-1.008-1.007zm66.218 1.537c-6.898 0-10.718-2.86-11.939-4.08-.424-.423-.583-.9-.212-1.588l2.441-4.29c.424-.69 1.273-.69 1.804-.319 1.486 1.007 4.192 2.914 7.534 2.914 2.123 0 3.661-1.325 3.661-3.179 0-2.224-1.963-3.655-5.465-5.35-5.146-2.49-10.293-5.35-10.293-11.706 0-5.244 4.085-10.541 12.256-10.541 5.519 0 9.763 2.807 11.355 3.972.637.371.53 1.325.318 1.696l-2.706 4.078c-.371.583-1.273 1.007-2.334.371-1.22-.847-4.351-2.86-7.163-2.86-2.229 0-3.237 1.377-3.237 2.913 0 1.748 2.07 3.125 5.784 4.926 4.669 2.278 10.718 4.874 10.718 12.078 0 5.456-4.723 10.965-12.522 10.965zM16.106 55.885c-.796 0-1.22-.689-.902-1.377l16.607-35.65c.16-.317.53-.582.902-.582h.53c.372 0 .743.265.903.582l16.607 35.65c.318.688-.106 1.377-.902 1.377h-5.89c-.955 0-1.38-.318-1.857-1.324l-2.871-6.433H26.718l-2.866 6.486c-.265.635-.849 1.27-1.91 1.27h-5.836zm19.952-14.972l-3.08-6.481h-.053l-2.984 6.48h6.117z"/>
        </g>
    </g>
</svg>
