<svg xmlns="http://www.w3.org/2000/svg" width="99" height="41" viewBox="0 0 99 41">
    <g fill="#494949" fill-rule="evenodd" opacity=".334">
        <path d="M0 28.344h5.188v.442c.005 1.776.01 3.553.019 5.33 0 .156.016.314.044.467.243 1.33 1.516 1.96 2.729 1.352.468-.234.723-.64.802-1.134.074-.461.101-.934.102-1.403.005-10.752.004-21.505.004-32.258V.612h5.242V33.56c-.002 1.244-.084 2.482-.523 3.662-.66 1.766-1.946 2.832-3.735 3.27-1.986.485-3.98.492-5.945-.132C1.98 39.742.804 38.389.315 36.417.175 35.85.102 35.269 0 34.694v-6.35zM67.153 40.26V.61c.087-.01.162-.023.236-.023 2.696.002 5.394-.035 8.088.029.959.022 1.935.198 2.861.458 1.837.515 2.767 1.876 3.039 3.718.102.681.148 1.377.151 2.066.017 2.77.01 5.539.006 8.308-.001.97-.088 1.93-.469 2.837a4.029 4.029 0 0 1-1.587 1.876c-.109.07-.22.137-.325.21-.02.012-.027.041-.05.08 1.047.505 1.88 1.255 2.226 2.38.241.787.4 1.63.412 2.452.044 3.016.047 6.034-.011 9.05a10.65 10.65 0 0 1-.454 2.842c-.549 1.813-1.918 2.765-3.703 3.116a13.23 13.23 0 0 1-2.39.24c-2.58.03-5.16.012-7.74.012h-.29zm5.228-5.03c.975 0 1.934.049 2.884-.017.732-.05 1.14-.554 1.218-1.3.027-.258.036-.52.036-.78.003-2.717.003-5.432 0-8.148 0-.274-.007-.55-.038-.82-.087-.796-.496-1.378-1.197-1.438-.957-.082-1.928-.02-2.903-.02v12.522zm-.004-17.527c.919 0 1.798.034 2.674-.011.56-.03.976-.376 1.123-.933.121-.46.216-.945.22-1.42.022-2.518.018-5.037.005-7.557a5.485 5.485 0 0 0-.146-1.12c-.116-.534-.47-.92-1.002-.952-.95-.057-1.903-.015-2.874-.015v12.008zM20.411.6h6.643l4.89 39.64h-5.287l-.728-8.115h-4.391l-.731 8.113H15.52L20.41.601zm4.959 26.607L23.73 7.656l-.045-.001-1.67 19.553h3.355zm73.583-15.313h-5.185v-.432c-.004-1.567.014-3.135-.016-4.703-.032-1.649-1.59-2.534-3.052-1.762-.552.292-.877.78-.898 1.376-.054 1.46-.051 2.922-.049 4.383.002.956.149 1.896.46 2.805.477 1.392 1.39 2.46 2.505 3.367.767.623 1.552 1.222 2.317 1.847 2.15 1.758 3.294 4.085 3.689 6.803.151 1.043.233 2.103.254 3.158.037 1.906.021 3.814-.003 5.72-.016 1.189-.265 2.333-.835 3.385-.805 1.487-2.103 2.314-3.696 2.68-1.964.452-3.936.447-5.875-.142-2.284-.693-3.526-2.322-3.904-4.643-.121-.744-.151-1.506-.163-2.26-.024-1.555-.007-3.11-.007-4.665v-.44h5.204c.007.134.018.272.018.409.001 1.593-.015 3.187.01 4.781.009.475.072.97.217 1.42.265.81.941 1.163 1.96 1.125.91-.035 1.486-.434 1.709-1.256.1-.39.149-.792.148-1.195.013-1.632.005-3.265-.004-4.899-.018-3.235-1.235-5.861-3.835-7.83-1.022-.774-2.015-1.61-2.91-2.526-1.433-1.466-2.114-3.325-2.349-5.34a35.16 35.16 0 0 1-.063-7.43c.321-3.317 2.262-5.08 5.475-5.503 1.354-.179 2.713-.164 4.059.125 2.804.603 4.498 2.368 4.735 5.244.173 2.09.092 4.2.123 6.302 0 .024-.02.047-.04.096zm-51.49.004h-5.09v-.481c-.01-1.569.003-3.137-.04-4.703-.027-.993-.508-1.662-1.33-1.846-1.367-.307-2.595.174-2.72 1.955-.015.207-.012.418-.012.627 0 8.636-.003 17.274.008 25.91 0 .516.042 1.053.188 1.542.263.885.984 1.257 2.108 1.2.87-.042 1.47-.509 1.663-1.369.098-.44.125-.905.13-1.36.015-1.515.006-3.031.006-4.547v-.451h5.084c.01.104.024.192.024.28-.004 1.935.002 3.868-.022 5.802a7.747 7.747 0 0 1-.573 2.862c-.641 1.557-1.783 2.583-3.379 3.05-2.314.677-4.633.66-6.906-.18-1.977-.731-3.01-2.273-3.367-4.296-.143-.805-.19-1.636-.192-2.455-.013-8.676-.018-17.353.005-26.029.003-.997.093-2.018.316-2.987.518-2.235 1.994-3.577 4.188-4.09 1.934-.451 3.878-.465 5.803.086 2.118.606 3.39 2.042 3.852 4.18.178.822.24 1.68.264 2.524.04 1.489.012 2.979.01 4.469 0 .09-.01.179-.019.307zM58.886 32.705v.421l-1.117.559 1.117.072v.562l-2.315-.12v-.517l1.567-.769-1.567-.765v-.515l2.315-.122v.562l-1.117.072 1.117.559zm-1.403-3.59h.49v1.032h.413V28.96h.5v1.763H56.57V28.96h.5v1.187h.412v-1.032zm.239-3.06c.732 0 1.191.51 1.191 1.21 0 .346-.013.672-.027.926H56.57a14.88 14.88 0 0 1-.028-.867c0-.759.457-1.27 1.179-1.27zm0 .596c-.406 0-.664.267-.664.648 0 .1 0 .209.007.316h1.327c.008-.12.008-.247.008-.364 0-.333-.266-.6-.678-.6zm-1.15-1.315v-.58h2.314v.58H56.57zm2.314-1.74v.632l-2.329-1.039v-.538l2.329-1.037v.628l-.381.162v1.036l.38.157zm-.868-.355V22.6l-.773.32.773.32zm.67-5.633c.164.426.249.773.249 1.078 0 .762-.487 1.269-1.215 1.269-.722 0-1.202-.514-1.202-1.29 0-.288.037-.583.11-.87l.51.099a4.559 4.559 0 0 0-.082.716c0 .44.266.734.664.734.405 0 .677-.267.677-.664 0-.186-.037-.405-.078-.578h-.334v.742h-.47v-1.236h1.171zm-.466-1.612v.244h.664v.576H56.57c-.013-.312-.02-.624-.02-.936 0-.604.285-.98.823-.98.31 0 .559.149.701.404l.81-.56v.687l-.663.428v.137zm-.483-.126c0-.237-.147-.395-.358-.395-.232 0-.336.158-.336.419 0 .106.003.23.003.346h.69v-.37zm-.01-4.102c.724 0 1.207.514 1.207 1.252s-.483 1.252-1.208 1.252c-.724 0-1.208-.514-1.208-1.252s.483-1.252 1.208-1.252zm0 .597c-.409 0-.678.274-.678.655s.269.655.677.655c.409 0 .681-.274.681-.655 0-.38-.272-.655-.68-.655zm.112-3.416c.687 0 1.096.422 1.096 1.094 0 .669-.41 1.087-1.096 1.087h-1.27v-.582h1.27c.354 0 .558-.196.558-.505s-.204-.51-.558-.51h-1.27v-.584h1.27zm-.443-2.71c.527 0 .861.398.861 1.015v.322h.627v.576H56.57c-.017-.299-.026-.599-.028-.898 0-.617.314-1.015.855-1.015zm.361.981c0-.237-.132-.405-.358-.405-.231 0-.356.168-.356.405 0 .12.003.24.006.356h.708V7.22z"/>
        <path d="M60.088 20.426v.02l-.001 13.025c0 .318-.013.637-.039.954l-.005.033c-.015.175-.04.35-.079.521-.145.646-.546 1.078-1.184 1.273-.63.193-1.27.19-1.907.05-.491-.108-.902-.354-1.165-.802a2.317 2.317 0 0 1-.302-1.18v-.052a6.604 6.604 0 0 1-.025-.594c-.003-4.416-.001-8.832-.002-13.248 0-4.416 0-8.833.002-13.249 0-.197.007-.395.025-.593V6.55c.002-.415.088-.815.302-1.179.263-.449.674-.695 1.165-.802.636-.14 1.278-.144 1.907.05.638.195 1.039.626 1.184 1.272.037.161.062.327.078.493 0 .015.005.027.006.042.026.317.038.636.039.955.002 4.341.001 8.683.001 13.025v.02zm4.979-.742h-.003c0-4.13-.002-8.261-.014-12.392 0-.95-.105-1.898-.311-2.825-.457-2.027-1.716-3.382-3.718-3.995-1.978-.605-3.99-.597-5.99-.156-1.54.34-2.83 1.111-3.654 2.52-.672 1.142-.945 2.399-.95 3.702-.017 4.382-.009 8.764-.008 13.146H50.4v1.484h.02c-.002 4.382-.01 8.763.007 13.146.005 1.303.278 2.56.95 3.703.824 1.407 2.115 2.18 3.654 2.518 2 .441 4.012.45 5.99-.155 2.002-.613 3.261-1.969 3.718-3.996.208-.919.31-1.88.311-2.824.012-4.13.014-8.261.014-12.392h.002v-1.484z"/>
    </g>
</svg>
