<?xml version="1.0" encoding="UTF-8"?>
<svg width="210px" height="19px" viewBox="0 0 210 19" version="1.1" xmlns="http://www.w3.org/2000/svg" xmlns:xlink="http://www.w3.org/1999/xlink">
    <!-- Generator: Sketch 63.1 (92452) - https://sketch.com -->
    <title>travo logo</title>
    <desc>Created with Sketch.</desc>
    <g id="Page-1" stroke="none" stroke-width="1" fill="none" fill-rule="evenodd">
        <g id="travolution_home" transform="translate(-147.000000, -142.000000)" fill="#FFFFFE">
            <g id="Group-18" transform="translate(0.000000, 121.000000)">
                <g id="Group-17">
                    <g id="Group" transform="translate(127.000000, 0.000000)">
                        <path d="M220.484403,21.0226643 L226.695361,35.6174315 L226.697396,21.0241571 L230,21.0241571 L229.997286,39.8508308 L225.197076,39.8508308 L218.99019,25.2576921 L218.988833,39.8508308 L215.684193,39.8489986 L215.686907,21.0226643 L220.484403,21.0226643 Z M197.518855,21.019475 L204.886097,21.0209 C205.421489,21.0209 205.901917,21.2189069 206.297524,21.6134279 L208.612129,23.9291863 C209.008414,24.3246573 209.204521,24.8036604 209.204521,25.3412241 L209.204521,35.5300995 C209.204521,36.0668489 209.006379,36.5457841 208.610772,36.941798 L206.296167,39.2559957 C205.90056,39.6504488 205.420132,39.8486593 204.88474,39.8486593 L197.516819,39.8486593 C196.981427,39.8486593 196.499641,39.6504488 196.105392,39.2559957 L193.792823,36.9402373 C193.396537,36.543952 193.198395,36.0642025 193.198395,35.528878 L193.198395,25.3390527 C193.198395,24.8006068 193.397894,24.323368 193.79418,23.9261327 L196.108106,21.6126815 C196.503034,21.2176855 196.982784,21.019475 197.518855,21.019475 Z M177.323232,21.0182536 L187.485508,21.019475 L187.485508,24.0106148 L184.098083,24.0106148 L184.097404,36.8546695 L187.484151,36.8546695 L187.484151,39.8468272 L177.321875,39.8464201 L177.321875,36.8531767 L180.709979,36.8531767 L180.711336,24.0106148 L177.323232,24.0106148 L177.323232,21.0182536 Z M157.846216,21.0149286 L172.13013,21.0163536 L172.13013,24.2354931 L166.680529,24.2346788 L166.679172,39.8446558 L163.292425,39.8446558 L163.293782,24.2346788 L157.846216,24.2346788 L157.846216,21.0149286 Z M141.703697,21.0134357 L141.70234,34.9573858 C141.70234,35.0994785 141.760697,35.240214 141.872661,35.3529925 L142.973303,36.4549235 C143.085946,36.5676341 143.198589,36.6238876 143.367553,36.6238876 L147.574013,36.6251091 C147.745013,36.6251091 147.856298,36.5676341 147.968262,36.4554664 L149.069583,35.3529925 C149.183582,35.240214 149.240582,35.0994785 149.240582,34.9596929 L149.242618,21.0149286 L152.629365,21.0149286 L152.628008,35.525078 C152.628008,36.0608775 152.429186,36.5394734 152.03358,36.9358266 L149.719653,39.2498207 C149.323368,39.6443417 148.84294,39.8428915 148.307548,39.8428915 L142.633339,39.8428915 C142.097947,39.8428915 141.618197,39.6443417 141.221912,39.2486671 L138.908664,36.9339945 C138.513058,36.5394734 138.314915,36.0595203 138.314915,35.5227709 L138.317629,21.0134357 L141.703697,21.0134357 Z M125.062429,21.0122821 L125.06175,36.6212412 L134.292348,36.6238876 L134.290991,39.8405843 L121.674325,39.8397022 L121.675682,21.0122821 L125.062429,21.0122821 Z M103.315594,21.0087536 L110.683515,21.0105178 C111.220264,21.0105178 111.699335,21.2087284 112.09562,21.6032494 L114.410225,23.9179899 C114.805153,24.3151573 115.002617,24.7936854 115.002617,25.3301634 L115.00126,35.519378 C115.00126,36.0563989 114.803118,36.5365556 114.408868,36.9310087 L112.091549,39.2459528 C111.697978,39.6414917 111.218907,39.8382772 110.6808,39.8382772 L103.313558,39.8382772 C102.778166,39.8382772 102.297737,39.6396596 101.902131,39.2447314 L99.5875259,36.9298552 C99.1932763,36.5336377 98.9964908,36.0549061 98.9964908,35.5181566 L98.997848,25.3277884 C98.997848,24.7915818 99.1946335,24.3118323 99.5909188,23.9160899 L101.904845,21.6011458 C102.300452,21.2066926 102.779523,21.0087536 103.315594,21.0087536 Z M81.7529906,21.0074643 L86.4104965,36.1673452 L91.1257489,21.0087536 L94.5396382,21.0087536 L88.3856802,39.8365129 L84.3485236,39.8348844 L78.2534656,21.0074643 L81.7529906,21.0074643 Z M69.9151205,21.0053607 L76.8286027,39.8337308 L73.384992,39.8337308 L71.6066616,35.1188177 L64.0973943,35.1188177 L62.3197425,39.8322379 L58.9317746,39.8322379 L65.9061246,21.0053607 L69.9151205,21.0053607 Z M39.9245332,21.0025786 L50.4252797,21.0033929 C50.961622,21.0033929 51.4129394,21.2000427 51.780589,21.5683708 L53.6430621,23.4315225 C54.0389403,23.8275364 54.2361329,24.2789895 54.2353186,24.8439675 L54.2353186,28.5686423 C54.2353186,29.1333488 54.0382617,29.5853448 53.6429264,29.9800016 L51.7793676,31.8433568 C51.4125322,32.2109386 50.9608756,32.4088098 50.4248725,32.4088098 L49.7473875,32.4088098 L55.5617209,39.8322379 L51.4107679,39.8322379 L45.85212,32.6610345 C45.7375773,32.4918668 45.5700382,32.4088098 45.3716241,32.4088098 L43.3116869,32.4073169 L43.3102619,39.8307451 L39.9221582,39.8307451 L39.9245332,21.0025786 Z M20,21 L34.2822176,21.0014929 L34.2822176,24.2205646 L28.8356017,24.2205646 L28.8332267,39.8289129 L25.4456659,39.8275558 L25.4480409,24.2190039 L20,24.2173074 L20,21 Z M198.253068,24.2381396 C198.084104,24.2381396 197.969426,24.2945288 197.858819,24.4082572 L196.758177,25.5081525 C196.642141,25.6200489 196.587177,25.7625487 196.587177,25.9039629 L196.585141,34.9645108 C196.585141,35.1054499 196.642141,35.246389 196.756141,35.3590996 L197.856104,36.4613021 C197.968068,36.5740127 198.082747,36.6298591 198.250354,36.6298591 L204.153241,36.6312162 C204.31949,36.6312162 204.434848,36.5740127 204.546133,36.4614378 L205.646775,35.3604568 C205.759418,35.2483569 205.817775,35.1054499 205.817775,34.9645108 L205.817775,25.9047771 C205.817775,25.7626166 205.760775,25.6214739 205.648132,25.5091025 L204.54749,24.4082572 C204.436205,24.2954788 204.322205,24.2400396 204.153241,24.2400396 L198.253068,24.2381396 Z M109.950658,24.228911 L104.049807,24.2280288 C103.8822,24.2280288 103.767522,24.2834681 103.655557,24.396518 L102.55288,25.4980418 C102.440237,25.6098024 102.383916,25.7517594 102.383916,25.8937164 L102.383237,34.9533822 C102.383237,35.0953392 102.440237,35.2369569 102.552201,35.3483782 L103.653522,36.4494949 C103.766165,36.5636305 103.878807,36.6191619 104.049129,36.6191619 L109.949301,36.6191619 C110.116908,36.6204948 110.229551,36.564852 110.343551,36.4509199 L111.444871,35.3502104 C111.556835,35.2374319 111.612478,35.0964928 111.612478,34.9551465 L111.614514,25.8946664 C111.614514,25.7537273 111.558192,25.6107524 111.44555,25.4980418 L110.344908,24.397943 C110.230908,24.2849609 110.120979,24.228911 109.950658,24.228911 Z M67.8545047,24.6472498 L65.2560538,32.098228 L70.4506485,32.099178 L67.8545047,24.6472498 Z M49.6638554,24.2220574 L43.3122298,24.2220574 L43.3116869,29.1882452 L49.6638554,29.1897381 C49.8320731,29.1897381 49.9447159,29.1333488 50.05858,29.0207061 L50.6789294,28.3995424 C50.7917079,28.2868319 50.8489792,28.1726284 50.8489792,28.0041393 L50.8489792,25.4067741 C50.8489792,25.239235 50.7917079,25.1243529 50.6789294,25.012253 L50.0591229,24.3917001 C49.9464123,24.2772252 49.8320731,24.2220574 49.6638554,24.2220574 Z" id="travo-logo"></path>
                    </g>
                </g>
            </g>
        </g>
    </g>
</svg>